<svg width="27" height="22" viewBox="0 0 27 22" fill="none" xmlns="http://www.w3.org/2000/svg">
<g id="Group 17">
<path id="Star 5" d="M8.30276 1.4303C8.30276 1.4303 8.44523 3.41011 8.86522 3.82851C9.28521 4.24691 11.2725 4.38884 11.2725 4.38884C11.2725 4.38884 9.28521 4.53076 8.86522 4.94917C8.44523 5.36757 8.30276 7.34737 8.30276 7.34737C8.30276 7.34737 8.16029 5.36757 7.7403 4.94917C7.32031 4.53076 5.35547 4.38884 5.35547 4.38884C5.35547 4.38884 7.32031 4.24691 7.7403 3.82851C8.16029 3.41011 8.30276 1.4303 8.30276 1.4303Z" fill="white"/>
<path id="star" d="M13.3093 0.00500488C13.3093 0.00500488 13.7585 6.24791 15.0829 7.56724C16.4072 8.88658 22.6739 9.33412 22.6739 9.33412C22.6739 9.33412 16.9722 9.21886 15.0829 11.101C13.1936 12.9831 13.6332 22.2696 13.3093 21.9889C12.9853 21.7082 13.6471 12.9189 11.5357 11.101C9.42427 9.28308 4.01562 9.33412 4.01562 9.33412C4.01562 9.33412 10.2113 8.88658 11.5357 7.56724C12.86 6.24791 13.3093 0.00500488 13.3093 0.00500488Z" fill="url(#paint0_linear_701_1257)"/>
<g id="shadow" filter="url(#filter0_f_701_1257)">
<path d="M13.043 17.9722H13.6908L13.6805 18.5768H13.059L13.043 17.9722Z" fill="#000E22"/>
</g>
<path id="Ellipse 7985" d="M26.3893 15.7415C26.3893 15.7658 26.3751 15.84 26.2285 15.9606C26.0852 16.0784 25.8556 16.2057 25.5311 16.3348C24.8849 16.5919 23.932 16.8296 22.7326 17.0315C20.3386 17.4343 17.0197 17.6851 13.3458 17.6851C9.67194 17.6851 6.35306 17.4343 3.95907 17.0315C2.75964 16.8296 1.8067 16.5919 1.16055 16.3348C0.836002 16.2057 0.606413 16.0784 0.463175 15.9606C0.316507 15.84 0.302332 15.7658 0.302332 15.7415C0.302332 15.7173 0.316507 15.643 0.463176 15.5224C0.606413 15.4046 0.836002 15.2773 1.16055 15.1482C1.8067 14.8911 2.75964 14.6534 3.95907 14.4516C6.35306 14.0487 9.67194 13.7979 13.3458 13.7979C17.0197 13.7979 20.3386 14.0487 22.7326 14.4516C23.932 14.6534 24.8849 14.8911 25.5311 15.1482C25.8556 15.2773 26.0852 15.4046 26.2285 15.5224C26.3751 15.643 26.3893 15.7173 26.3893 15.7415Z" stroke="white" stroke-width="0.604665"/>
</g>
<defs>
<filter id="filter0_f_701_1257" x="12.8702" y="17.7994" width="0.992984" height="0.950137" filterUnits="userSpaceOnUse" color-interpolation-filters="sRGB">
<feFlood flood-opacity="0" result="BackgroundImageFix"/>
<feBlend mode="normal" in="SourceGraphic" in2="BackgroundImageFix" result="shape"/>
<feGaussianBlur stdDeviation="0.0863807" result="effect1_foregroundBlur_701_1257"/>
</filter>
<linearGradient id="paint0_linear_701_1257" x1="13.3447" y1="17.2163" x2="13.3447" y2="21.6434" gradientUnits="userSpaceOnUse">
<stop stop-color="white"/>
<stop offset="1" stop-color="#000E22"/>
</linearGradient>
</defs>
</svg>
