<svg width="840" height="800" viewBox="0 0 840 800" fill="none" xmlns="http://www.w3.org/2000/svg">
<rect width="840" height="800" rx="40" fill="#2A2A39"/>
<mask id="path-2-outside-1_446_2" maskUnits="userSpaceOnUse" x="54.5269" y="330" width="736" height="138" fill="black">
<rect fill="white" x="54.5269" y="330" width="736" height="138"/>
<path d="M150.435 418.327V435.286C150.435 446.429 143.635 452 130.034 452H89.4793C76.2067 452 69.5705 446.183 69.5705 434.549V364.499C69.5705 352.538 76.2067 346.557 89.4793 346.557H130.034C143.635 346.557 150.435 352.292 150.435 363.762V375.56C149.615 380.476 146.092 385.391 139.866 390.307C137.408 392.274 136.179 394.404 136.179 396.698C136.179 398.828 137.326 400.958 139.62 403.088C146.174 409.151 149.779 414.231 150.435 418.327ZM127.822 411.691L120.694 406.283C118.892 404.973 117.008 403.907 115.041 403.088C113.075 402.269 111.272 401.859 109.634 401.859H101.277C91.6095 401.859 86.7756 407.676 86.7756 419.31V429.633C86.7756 438.482 91.6914 442.906 101.523 442.906H120.94C129.133 442.906 133.23 438.891 133.23 430.862V420.048C133.23 418.901 132.656 417.672 131.509 416.361C130.526 414.886 129.297 413.329 127.822 411.691ZM127.822 382.442C129.297 380.967 130.526 379.329 131.509 377.526C132.656 375.724 133.23 373.512 133.23 370.89V365.483C133.23 359.256 129.133 356.143 120.94 356.143H101.523C91.6914 356.143 86.7756 362.042 86.7756 373.839V378.018C86.7756 387.685 91.4456 392.519 100.786 392.519H109.634C111.436 392.519 113.239 392.192 115.041 391.536C117.008 390.881 118.892 389.816 120.694 388.341L127.822 382.442ZM207.884 442.906H248.193C253.437 442.906 256.058 444.462 256.058 447.576C256.058 450.525 253.518 452 248.439 452H195.103C181.83 452 175.194 446.593 175.194 435.778V363.271C175.194 352.128 181.83 346.557 195.103 346.557H248.439C253.518 346.557 256.058 348.114 256.058 351.227C256.058 354.504 253.437 356.143 248.193 356.143H207.884C197.561 356.143 192.399 360.403 192.399 368.924V379.493C192.399 388.177 197.397 392.519 207.392 392.519H247.947C253.355 392.519 256.058 393.912 256.058 396.698C256.058 400.139 253.437 401.859 248.193 401.859H207.392C197.397 401.859 192.399 406.201 192.399 414.886V430.616C192.399 438.809 197.561 442.906 207.884 442.906ZM332.343 385.637C335.784 382.196 337.504 377.854 337.504 372.61V367.203C337.177 363.598 336.03 360.895 334.063 359.092C332.097 357.126 329.229 356.143 325.461 356.143H305.306C295.802 356.143 291.05 361.632 291.05 372.61V379.247C291.05 390.225 295.72 395.715 305.06 395.715H312.188C317.595 395.715 321.938 394.158 325.215 391.045L332.343 385.637ZM345.861 452.983C340.29 452.983 337.504 449.46 337.504 442.414V424.963C337.504 423.652 337.013 422.26 336.03 420.785C335.046 419.146 333.736 417.508 332.097 415.869L324.969 409.97C320.873 406.857 317.186 405.3 313.909 405.3H305.06C295.72 405.3 291.05 409.97 291.05 419.31V441.677C291.05 449.214 288.183 452.983 282.448 452.983C276.713 452.983 273.845 448.969 273.845 440.94V364.499C273.845 352.538 280.154 346.557 292.771 346.557H333.572C347.664 346.557 354.709 352.128 354.709 363.271V379.493C353.89 384.244 350.367 389.242 344.141 394.486C341.683 396.452 340.454 398.5 340.454 400.63C340.454 402.597 341.601 404.645 343.895 406.775C350.449 413.002 354.054 418.081 354.709 422.014V441.923C354.709 449.296 351.76 452.983 345.861 452.983ZM427.152 356.143H410.438C400.607 356.143 395.691 361.304 395.691 371.627V380.967C395.691 390.799 400.525 395.715 410.192 395.715H427.643C437.311 395.715 442.145 389.652 442.145 377.526V368.432C442.145 360.239 437.147 356.143 427.152 356.143ZM442.145 438.727V417.098C442.145 409.069 437.147 405.054 427.152 405.054H410.438C400.607 405.054 395.691 409.069 395.691 417.098V438.973C395.691 447.494 392.823 451.754 387.088 451.754C381.353 451.754 378.486 447.904 378.486 440.202V364.254C378.486 352.456 384.466 346.557 396.428 346.557H438.949C452.55 346.557 459.35 352.456 459.35 364.254V439.956C459.35 447.822 456.482 451.754 450.747 451.754C445.012 451.754 442.145 447.412 442.145 438.727ZM564.482 418.327V435.286C564.482 446.429 557.682 452 544.081 452H503.526C490.254 452 483.618 446.183 483.618 434.549V364.499C483.618 352.538 490.254 346.557 503.526 346.557H544.081C557.682 346.557 564.482 352.292 564.482 363.762V375.56C563.663 380.476 560.14 385.391 553.913 390.307C551.455 392.274 550.226 394.404 550.226 396.698C550.226 398.828 551.373 400.958 553.667 403.088C560.222 409.151 563.826 414.231 564.482 418.327ZM541.869 411.691L534.741 406.283C532.939 404.973 531.055 403.907 529.088 403.088C527.122 402.269 525.32 401.859 523.681 401.859H515.324C505.657 401.859 500.823 407.676 500.823 419.31V429.633C500.823 438.482 505.739 442.906 515.57 442.906H534.987C543.18 442.906 547.277 438.891 547.277 430.862V420.048C547.277 418.901 546.703 417.672 545.556 416.361C544.573 414.886 543.344 413.329 541.869 411.691ZM541.869 382.442C543.344 380.967 544.573 379.329 545.556 377.526C546.703 375.724 547.277 373.512 547.277 370.89V365.483C547.277 359.256 543.18 356.143 534.987 356.143H515.57C505.739 356.143 500.823 362.042 500.823 373.839V378.018C500.823 387.685 505.493 392.519 514.833 392.519H523.681C525.483 392.519 527.286 392.192 529.088 391.536C531.055 390.881 532.939 389.816 534.741 388.341L541.869 382.442ZM620.702 442.906H637.907C647.739 442.906 652.654 438.072 652.654 428.404V370.153C652.654 360.813 647.657 356.143 637.661 356.143H620.948C611.116 356.143 606.201 360.813 606.201 370.153V428.896C606.201 438.236 611.034 442.906 620.702 442.906ZM669.86 435.286C669.86 446.429 663.223 452 649.951 452H608.904C595.632 452 588.995 446.429 588.995 435.286V363.762C588.995 352.292 595.632 346.557 608.904 346.557H649.705C663.141 346.557 669.86 352.292 669.86 363.762V435.286ZM744.268 442.906C753.116 442.906 757.541 438.646 757.541 430.125V416.115C757.541 407.594 752.871 403.334 743.531 403.334H713.053C700.272 403.334 693.882 398.172 693.882 387.849V355.897C693.882 348.851 696.749 345.328 702.484 345.328C708.219 345.328 711.087 349.015 711.087 356.388V380.721C711.087 389.406 715.921 393.748 725.588 393.748H743.039C752.707 393.748 757.541 389.406 757.541 380.721V356.388C757.541 349.015 760.408 345.328 766.143 345.328C772.042 345.328 774.992 348.933 774.992 356.143L774.746 436.024C774.582 446.675 768.191 452 755.574 452H701.009C696.257 452 693.882 450.443 693.882 447.33C693.882 444.381 696.421 442.906 701.501 442.906H744.268Z"/>
</mask>
<path d="M150.435 418.327V435.286C150.435 446.429 143.635 452 130.034 452H89.4793C76.2067 452 69.5705 446.183 69.5705 434.549V364.499C69.5705 352.538 76.2067 346.557 89.4793 346.557H130.034C143.635 346.557 150.435 352.292 150.435 363.762V375.56C149.615 380.476 146.092 385.391 139.866 390.307C137.408 392.274 136.179 394.404 136.179 396.698C136.179 398.828 137.326 400.958 139.62 403.088C146.174 409.151 149.779 414.231 150.435 418.327ZM127.822 411.691L120.694 406.283C118.892 404.973 117.008 403.907 115.041 403.088C113.075 402.269 111.272 401.859 109.634 401.859H101.277C91.6095 401.859 86.7756 407.676 86.7756 419.31V429.633C86.7756 438.482 91.6914 442.906 101.523 442.906H120.94C129.133 442.906 133.23 438.891 133.23 430.862V420.048C133.23 418.901 132.656 417.672 131.509 416.361C130.526 414.886 129.297 413.329 127.822 411.691ZM127.822 382.442C129.297 380.967 130.526 379.329 131.509 377.526C132.656 375.724 133.23 373.512 133.23 370.89V365.483C133.23 359.256 129.133 356.143 120.94 356.143H101.523C91.6914 356.143 86.7756 362.042 86.7756 373.839V378.018C86.7756 387.685 91.4456 392.519 100.786 392.519H109.634C111.436 392.519 113.239 392.192 115.041 391.536C117.008 390.881 118.892 389.816 120.694 388.341L127.822 382.442ZM207.884 442.906H248.193C253.437 442.906 256.058 444.462 256.058 447.576C256.058 450.525 253.518 452 248.439 452H195.103C181.83 452 175.194 446.593 175.194 435.778V363.271C175.194 352.128 181.83 346.557 195.103 346.557H248.439C253.518 346.557 256.058 348.114 256.058 351.227C256.058 354.504 253.437 356.143 248.193 356.143H207.884C197.561 356.143 192.399 360.403 192.399 368.924V379.493C192.399 388.177 197.397 392.519 207.392 392.519H247.947C253.355 392.519 256.058 393.912 256.058 396.698C256.058 400.139 253.437 401.859 248.193 401.859H207.392C197.397 401.859 192.399 406.201 192.399 414.886V430.616C192.399 438.809 197.561 442.906 207.884 442.906ZM332.343 385.637C335.784 382.196 337.504 377.854 337.504 372.61V367.203C337.177 363.598 336.03 360.895 334.063 359.092C332.097 357.126 329.229 356.143 325.461 356.143H305.306C295.802 356.143 291.05 361.632 291.05 372.61V379.247C291.05 390.225 295.72 395.715 305.06 395.715H312.188C317.595 395.715 321.938 394.158 325.215 391.045L332.343 385.637ZM345.861 452.983C340.29 452.983 337.504 449.46 337.504 442.414V424.963C337.504 423.652 337.013 422.26 336.03 420.785C335.046 419.146 333.736 417.508 332.097 415.869L324.969 409.97C320.873 406.857 317.186 405.3 313.909 405.3H305.06C295.72 405.3 291.05 409.97 291.05 419.31V441.677C291.05 449.214 288.183 452.983 282.448 452.983C276.713 452.983 273.845 448.969 273.845 440.94V364.499C273.845 352.538 280.154 346.557 292.771 346.557H333.572C347.664 346.557 354.709 352.128 354.709 363.271V379.493C353.89 384.244 350.367 389.242 344.141 394.486C341.683 396.452 340.454 398.5 340.454 400.63C340.454 402.597 341.601 404.645 343.895 406.775C350.449 413.002 354.054 418.081 354.709 422.014V441.923C354.709 449.296 351.76 452.983 345.861 452.983ZM427.152 356.143H410.438C400.607 356.143 395.691 361.304 395.691 371.627V380.967C395.691 390.799 400.525 395.715 410.192 395.715H427.643C437.311 395.715 442.145 389.652 442.145 377.526V368.432C442.145 360.239 437.147 356.143 427.152 356.143ZM442.145 438.727V417.098C442.145 409.069 437.147 405.054 427.152 405.054H410.438C400.607 405.054 395.691 409.069 395.691 417.098V438.973C395.691 447.494 392.823 451.754 387.088 451.754C381.353 451.754 378.486 447.904 378.486 440.202V364.254C378.486 352.456 384.466 346.557 396.428 346.557H438.949C452.55 346.557 459.35 352.456 459.35 364.254V439.956C459.35 447.822 456.482 451.754 450.747 451.754C445.012 451.754 442.145 447.412 442.145 438.727ZM564.482 418.327V435.286C564.482 446.429 557.682 452 544.081 452H503.526C490.254 452 483.618 446.183 483.618 434.549V364.499C483.618 352.538 490.254 346.557 503.526 346.557H544.081C557.682 346.557 564.482 352.292 564.482 363.762V375.56C563.663 380.476 560.14 385.391 553.913 390.307C551.455 392.274 550.226 394.404 550.226 396.698C550.226 398.828 551.373 400.958 553.667 403.088C560.222 409.151 563.826 414.231 564.482 418.327ZM541.869 411.691L534.741 406.283C532.939 404.973 531.055 403.907 529.088 403.088C527.122 402.269 525.32 401.859 523.681 401.859H515.324C505.657 401.859 500.823 407.676 500.823 419.31V429.633C500.823 438.482 505.739 442.906 515.57 442.906H534.987C543.18 442.906 547.277 438.891 547.277 430.862V420.048C547.277 418.901 546.703 417.672 545.556 416.361C544.573 414.886 543.344 413.329 541.869 411.691ZM541.869 382.442C543.344 380.967 544.573 379.329 545.556 377.526C546.703 375.724 547.277 373.512 547.277 370.89V365.483C547.277 359.256 543.18 356.143 534.987 356.143H515.57C505.739 356.143 500.823 362.042 500.823 373.839V378.018C500.823 387.685 505.493 392.519 514.833 392.519H523.681C525.483 392.519 527.286 392.192 529.088 391.536C531.055 390.881 532.939 389.816 534.741 388.341L541.869 382.442ZM620.702 442.906H637.907C647.739 442.906 652.654 438.072 652.654 428.404V370.153C652.654 360.813 647.657 356.143 637.661 356.143H620.948C611.116 356.143 606.201 360.813 606.201 370.153V428.896C606.201 438.236 611.034 442.906 620.702 442.906ZM669.86 435.286C669.86 446.429 663.223 452 649.951 452H608.904C595.632 452 588.995 446.429 588.995 435.286V363.762C588.995 352.292 595.632 346.557 608.904 346.557H649.705C663.141 346.557 669.86 352.292 669.86 363.762V435.286ZM744.268 442.906C753.116 442.906 757.541 438.646 757.541 430.125V416.115C757.541 407.594 752.871 403.334 743.531 403.334H713.053C700.272 403.334 693.882 398.172 693.882 387.849V355.897C693.882 348.851 696.749 345.328 702.484 345.328C708.219 345.328 711.087 349.015 711.087 356.388V380.721C711.087 389.406 715.921 393.748 725.588 393.748H743.039C752.707 393.748 757.541 389.406 757.541 380.721V356.388C757.541 349.015 760.408 345.328 766.143 345.328C772.042 345.328 774.992 348.933 774.992 356.143L774.746 436.024C774.582 446.675 768.191 452 755.574 452H701.009C696.257 452 693.882 450.443 693.882 447.33C693.882 444.381 696.421 442.906 701.501 442.906H744.268Z" fill="#FEAEEE"/>
<path d="M150.435 418.327H165.182V417.155L164.997 415.997L150.435 418.327ZM150.435 375.56L164.981 377.984L165.182 376.78V375.56H150.435ZM139.866 390.307L130.728 378.732L130.69 378.762L130.653 378.792L139.866 390.307ZM139.62 403.088L129.585 413.895L129.596 413.905L129.606 413.914L139.62 403.088ZM127.822 411.691L138.784 401.825L137.849 400.786L136.735 399.942L127.822 411.691ZM120.694 406.283L129.607 394.534L129.489 394.444L129.368 394.357L120.694 406.283ZM115.041 403.088L120.713 389.475L120.713 389.475L115.041 403.088ZM131.509 416.361L119.239 424.541L119.774 425.345L120.411 426.072L131.509 416.361ZM127.822 382.442L137.225 393.803L137.759 393.361L138.25 392.87L127.822 382.442ZM131.509 377.526L119.067 369.609L118.8 370.028L118.562 370.464L131.509 377.526ZM115.041 391.536L110.378 377.546L110.189 377.609L110.001 377.677L115.041 391.536ZM120.694 388.341L130.033 399.755L130.065 399.728L130.097 399.702L120.694 388.341ZM150.435 418.327H135.687V435.286H150.435H165.182V418.327H150.435ZM150.435 435.286H135.687C135.687 436.6 135.485 437.078 135.5 437.041C135.552 436.913 135.734 436.623 135.989 436.414C136.182 436.256 136.024 436.47 135.074 436.729C134.092 436.997 132.476 437.253 130.034 437.253V452V466.747C138.473 466.747 147.541 465.078 154.681 459.229C162.383 452.919 165.182 443.993 165.182 435.286H150.435ZM130.034 452V437.253H89.4793V452V466.747H130.034V452ZM89.4793 452V437.253C84.6738 437.253 83.824 436.158 84.2685 436.547C84.5263 436.773 84.6232 437.006 84.599 436.942C84.5414 436.791 84.3177 436.091 84.3177 434.549H69.5705H54.8232C54.8232 443.181 57.3749 452.195 64.8268 458.727C71.9076 464.934 81.0123 466.747 89.4793 466.747V452ZM69.5705 434.549H84.3177L84.3177 364.499H69.5705H54.8232V434.549H69.5705ZM69.5705 364.499H84.3177C84.3177 362.835 84.5528 362.018 84.6463 361.765C84.7082 361.598 84.6583 361.783 84.4206 361.997C83.973 362.401 84.7594 361.304 89.4793 361.304V346.557V331.81C80.9267 331.81 71.7586 333.704 64.6748 340.088C57.2995 346.735 54.8232 355.827 54.8232 364.499H69.5705ZM89.4793 346.557V361.304H130.034V346.557V331.81H89.4793V346.557ZM130.034 346.557V361.304C135.116 361.304 136.179 362.428 135.827 362.132C135.74 362.058 135.638 361.952 135.549 361.827C135.462 361.704 135.435 361.631 135.445 361.655C135.471 361.721 135.687 362.32 135.687 363.762H150.435H165.182C165.182 355.033 162.476 346.023 154.842 339.585C147.69 333.553 138.553 331.81 130.034 331.81V346.557ZM150.435 363.762H135.687V375.56H150.435H165.182V363.762H150.435ZM150.435 375.56L135.888 373.135C135.92 372.945 135.916 373.332 135.191 374.343C134.44 375.391 133.073 376.881 130.728 378.732L139.866 390.307L149.004 401.882C156.488 395.973 163.289 388.136 164.981 377.984L150.435 375.56ZM139.866 390.307L130.653 378.792C126.078 382.452 121.432 388.412 121.432 396.698H136.179H150.926C150.926 398.324 150.457 399.74 149.875 400.749C149.353 401.652 148.901 401.965 149.078 401.823L139.866 390.307ZM136.179 396.698H121.432C121.432 404.533 125.709 410.295 129.585 413.895L139.62 403.088L149.655 392.281C149.364 392.011 149.642 392.193 150.024 392.901C150.448 393.69 150.926 395.008 150.926 396.698H136.179ZM139.62 403.088L129.606 413.914C132.428 416.524 134.193 418.543 135.213 419.98C136.306 421.52 136.037 421.683 135.873 420.657L150.435 418.327L164.997 415.997C164.177 410.875 161.778 406.45 159.266 402.91C156.681 399.267 153.367 395.715 149.634 392.262L139.62 403.088ZM127.822 411.691L136.735 399.942L129.607 394.534L120.694 406.283L111.781 418.032L118.909 423.44L127.822 411.691ZM120.694 406.283L129.368 394.357C126.678 392.4 123.791 390.758 120.713 389.475L115.041 403.088L109.369 416.701C110.224 417.057 111.106 417.545 112.02 418.21L120.694 406.283ZM115.041 403.088L120.713 389.475C117.464 388.121 113.708 387.112 109.634 387.112V401.859V416.607C109.224 416.607 108.983 416.555 108.946 416.547C108.913 416.539 109.049 416.568 109.369 416.701L115.041 403.088ZM109.634 401.859V387.112H101.277V401.859V416.607H109.634V401.859ZM101.277 401.859V387.112C93.3779 387.112 85.0232 389.619 79.0587 396.797C73.5289 403.451 72.0283 411.816 72.0283 419.31H86.7756H101.523C101.523 417.375 101.729 416.207 101.894 415.612C102.049 415.053 102.106 415.211 101.743 415.647C101.566 415.86 101.339 416.078 101.073 416.27C100.809 416.46 100.577 416.575 100.423 416.637C100.129 416.755 100.309 416.607 101.277 416.607V401.859ZM86.7756 419.31H72.0283V429.633H86.7756H101.523V419.31H86.7756ZM86.7756 429.633H72.0283C72.0283 436.756 74.0781 444.682 80.597 450.549C86.8206 456.15 94.6951 457.653 101.523 457.653V442.906V428.159C100.124 428.159 99.458 427.996 99.3086 427.951C99.2111 427.922 99.6925 428.054 100.328 428.626C100.633 428.9 100.902 429.214 101.12 429.541C101.336 429.865 101.461 430.14 101.527 430.318C101.65 430.651 101.523 430.518 101.523 429.633H86.7756ZM101.523 442.906V457.653H120.94V442.906V428.159H101.523V442.906ZM120.94 442.906V457.653C127.236 457.653 134.681 456.11 140.479 450.428C146.333 444.691 147.977 437.226 147.977 430.862H133.23H118.482C118.482 431.659 118.376 431.747 118.5 431.382C118.649 430.943 119.037 430.145 119.835 429.362C120.627 428.586 121.393 428.247 121.737 428.135C122.014 428.044 121.829 428.159 120.94 428.159V442.906ZM133.23 430.862H147.977V420.048H133.23H118.482V430.862H133.23ZM133.23 420.048H147.977C147.977 413.875 144.93 409.304 142.608 406.65L131.509 416.361L120.411 426.072C120.382 426.039 118.482 423.926 118.482 420.048H133.23ZM131.509 416.361L143.78 408.18C142.32 405.991 140.625 403.872 138.784 401.825L127.822 411.691L116.861 421.556C117.969 422.787 118.732 423.781 119.239 424.541L131.509 416.361ZM127.822 382.442L138.25 392.87C140.705 390.415 142.787 387.647 144.456 384.588L131.509 377.526L118.562 370.464C118.265 371.011 117.889 371.519 117.394 372.014L127.822 382.442ZM131.509 377.526L143.951 385.444C146.913 380.788 147.977 375.677 147.977 370.89H133.23H118.482C118.482 371.131 118.455 371.079 118.524 370.814C118.597 370.532 118.757 370.096 119.067 369.609L131.509 377.526ZM133.23 370.89H147.977V365.483H133.23H118.482V370.89H133.23ZM133.23 365.483H147.977C147.977 358.844 145.582 351.678 139.081 346.736C133.343 342.376 126.486 341.395 120.94 341.395V356.143V370.89C122.102 370.89 122.629 371.005 122.695 371.022C122.743 371.034 122.108 370.883 121.234 370.219C120.279 369.494 119.461 368.471 118.956 367.32C118.489 366.255 118.482 365.525 118.482 365.483H133.23ZM120.94 356.143V341.395H101.523V356.143V370.89H120.94V356.143ZM101.523 356.143V341.395C93.5554 341.395 85.1431 343.914 79.1333 351.126C73.5526 357.823 72.0283 366.256 72.0283 373.839H86.7756H101.523C101.523 371.866 101.734 370.666 101.907 370.044C102.069 369.458 102.137 369.593 101.792 370.008C101.398 370.48 100.897 370.802 100.548 370.941C100.289 371.045 100.509 370.89 101.523 370.89V356.143ZM86.7756 373.839H72.0283V378.018H86.7756H101.523V373.839H86.7756ZM86.7756 378.018H72.0283C72.0283 385 73.7086 392.968 79.672 399.141C85.7268 405.408 93.7106 407.267 100.786 407.267V392.519V377.772C100.248 377.772 99.8813 377.737 99.6592 377.704C99.4387 377.671 99.3878 377.645 99.4662 377.672C99.5497 377.701 99.7542 377.782 100.029 377.952C100.308 378.126 100.605 378.358 100.884 378.647C101.163 378.936 101.366 379.221 101.505 379.459C101.639 379.692 101.687 379.836 101.689 379.842C101.689 379.843 101.646 379.708 101.603 379.4C101.561 379.092 101.523 378.638 101.523 378.018H86.7756ZM100.786 392.519V407.267H109.634V392.519V377.772H100.786V392.519ZM109.634 392.519V407.267C113.263 407.267 116.767 406.6 120.081 405.396L115.041 391.536L110.001 377.677C109.845 377.734 109.746 377.756 109.7 377.764C109.654 377.772 109.636 377.772 109.634 377.772V392.519ZM115.041 391.536L119.705 405.527C123.57 404.238 127.012 402.226 130.033 399.755L120.694 388.341L111.356 376.927C110.771 377.405 110.445 377.523 110.378 377.546L115.041 391.536ZM120.694 388.341L130.097 399.702L137.225 393.803L127.822 382.442L118.42 371.081L111.292 376.98L120.694 388.341ZM207.884 442.906V457.653H248.193V442.906V428.159H207.884V442.906ZM248.193 442.906V457.653C249.838 457.653 248.633 457.983 246.563 456.754C245.307 456.008 243.814 454.723 242.707 452.752C241.609 450.796 241.311 448.911 241.311 447.576H256.058H270.806C270.806 440.95 267.522 434.896 261.621 431.393C256.929 428.607 251.792 428.159 248.193 428.159V442.906ZM256.058 447.576H241.311C241.311 446.144 241.638 444.179 242.792 442.169C243.948 440.156 245.488 438.872 246.748 438.141C248.823 436.936 250.035 437.253 248.439 437.253V452V466.747C251.923 466.747 256.944 466.327 261.559 463.647C267.398 460.257 270.806 454.278 270.806 447.576H256.058ZM248.439 452V437.253H195.103V452V466.747H248.439V452ZM195.103 452V437.253C192.738 437.253 191.187 437.007 190.258 436.754C189.361 436.511 189.252 436.32 189.487 436.512C189.785 436.755 190.007 437.094 190.088 437.291C190.131 437.398 189.941 437.001 189.941 435.778H175.194H160.447C160.447 444.347 163.223 453.158 170.856 459.377C177.911 465.125 186.843 466.747 195.103 466.747V452ZM175.194 435.778H189.941V363.271H175.194H160.447V435.778H175.194ZM175.194 363.271H189.941C189.941 361.918 190.146 361.398 190.145 361.401C190.108 361.493 189.937 361.792 189.653 362.03C189.424 362.222 189.516 362.041 190.367 361.803C191.256 361.554 192.768 361.304 195.103 361.304V346.557V331.81C186.761 331.81 177.758 333.506 170.689 339.441C163.127 345.789 160.447 354.683 160.447 363.271H175.194ZM195.103 346.557V361.304H248.439V346.557V331.81H195.103V346.557ZM248.439 346.557V361.304C249.952 361.304 248.607 361.622 246.447 360.298C245.15 359.503 243.688 358.181 242.627 356.23C241.581 354.308 241.311 352.487 241.311 351.227H256.058H270.806C270.806 344.821 267.739 338.754 261.86 335.151C257.16 332.27 252.006 331.81 248.439 331.81V346.557ZM256.058 351.227H241.311C241.311 350.053 241.558 348.307 242.554 346.438C243.571 344.531 244.988 343.213 246.276 342.408C248.425 341.065 249.756 341.395 248.193 341.395V356.143V370.89C251.874 370.89 257.138 370.401 261.908 367.419C267.834 363.716 270.806 357.582 270.806 351.227H256.058ZM248.193 356.143V341.395H207.884V356.143V370.89H248.193V356.143ZM207.884 356.143V341.395C201.064 341.395 193.207 342.745 186.883 347.964C180.017 353.631 177.652 361.565 177.652 368.924H192.399H207.146C207.146 368.253 207.251 368.336 207.041 368.854C206.934 369.12 206.762 369.453 206.505 369.806C206.247 370.161 205.954 370.467 205.658 370.711C205.057 371.208 204.697 371.25 205.021 371.16C205.38 371.062 206.269 370.89 207.884 370.89V356.143ZM192.399 368.924H177.652V379.493H192.399H207.146V368.924H192.399ZM192.399 379.493H177.652C177.652 386.69 179.819 394.612 186.475 400.395C192.735 405.834 200.59 407.267 207.392 407.267V392.519V377.772C205.913 377.772 205.164 377.606 204.935 377.54C204.752 377.487 205.191 377.584 205.82 378.13C206.125 378.395 206.406 378.708 206.643 379.051C206.877 379.39 207.022 379.693 207.105 379.909C207.264 380.324 207.146 380.284 207.146 379.493H192.399ZM207.392 392.519V407.267H247.947V392.519V377.772H207.392V392.519ZM247.947 392.519V407.267C249.864 407.267 249.062 407.593 247.277 406.674C246.17 406.104 244.51 404.953 243.17 402.881C241.784 400.738 241.311 398.493 241.311 396.698H256.058H270.806C270.806 393.509 269.995 390.045 267.933 386.858C265.916 383.742 263.243 381.721 260.784 380.454C256.296 378.142 251.438 377.772 247.947 377.772V392.519ZM256.058 396.698H241.311C241.311 395.672 241.514 394.058 242.418 392.277C243.351 390.441 244.691 389.099 246.001 388.239C248.218 386.784 249.671 387.112 248.193 387.112V401.859V416.607C251.959 416.607 257.344 416.074 262.183 412.898C268.105 409.012 270.806 402.814 270.806 396.698H256.058ZM248.193 401.859V387.112H207.392V401.859V416.607H248.193V401.859ZM207.392 401.859V387.112C200.59 387.112 192.735 388.545 186.475 393.984C179.819 399.767 177.652 407.689 177.652 414.886H192.399H207.146C207.146 414.095 207.264 414.055 207.105 414.469C207.022 414.686 206.877 414.989 206.643 415.328C206.406 415.67 206.125 415.983 205.82 416.248C205.191 416.794 204.752 416.892 204.935 416.839C205.164 416.772 205.913 416.607 207.392 416.607V401.859ZM192.399 414.886H177.652V430.616H192.399H207.146V414.886H192.399ZM192.399 430.616H177.652C177.652 438.009 180.151 445.867 187.103 451.385C193.405 456.386 201.167 457.653 207.884 457.653V442.906V428.159C206.23 428.159 205.291 427.989 204.881 427.881C204.498 427.779 204.831 427.801 205.438 428.282C205.741 428.522 206.055 428.834 206.341 429.212C206.626 429.589 206.829 429.961 206.964 430.282C207.231 430.918 207.146 431.141 207.146 430.616H192.399ZM332.343 385.637L341.256 397.386L342.058 396.777L342.771 396.065L332.343 385.637ZM337.504 367.203H352.252V366.534L352.191 365.868L337.504 367.203ZM334.063 359.092L323.635 369.52L323.862 369.747L324.098 369.963L334.063 359.092ZM325.215 391.045L316.302 379.296L315.651 379.79L315.058 380.353L325.215 391.045ZM336.03 420.785L323.384 428.372L323.564 428.673L323.759 428.965L336.03 420.785ZM332.097 415.869L342.525 405.441L342.034 404.95L341.499 404.508L332.097 415.869ZM324.969 409.97L334.372 398.609L334.136 398.414L333.892 398.229L324.969 409.97ZM354.709 379.493L369.242 381.998L369.457 380.755V379.493H354.709ZM344.141 394.486L353.353 406.001L353.498 405.885L353.64 405.766L344.141 394.486ZM343.895 406.775L354.052 396.083L353.991 396.025L353.93 395.968L343.895 406.775ZM354.709 422.014H369.457V420.793L369.256 419.589L354.709 422.014ZM332.343 385.637L342.771 396.065C349.206 389.63 352.252 381.43 352.252 372.61H337.504H322.757C322.757 374.278 322.362 374.762 321.915 375.209L332.343 385.637ZM337.504 372.61H352.252V367.203H337.504H322.757V372.61H337.504ZM337.504 367.203L352.191 365.868C351.651 359.929 349.541 353.274 344.028 348.221L334.063 359.092L324.098 369.963C323.375 369.3 322.989 368.624 322.822 368.231C322.678 367.892 322.761 367.919 322.818 368.538L337.504 367.203ZM334.063 359.092L344.491 348.664C338.891 343.064 331.713 341.395 325.461 341.395V356.143V370.89C326.097 370.89 326.083 370.977 325.655 370.83C325.158 370.66 324.38 370.265 323.635 369.52L334.063 359.092ZM325.461 356.143V341.395H305.306V356.143V370.89H325.461V356.143ZM305.306 356.143V341.395C297.682 341.395 289.448 343.696 283.464 350.608C277.834 357.112 276.303 365.328 276.303 372.61H291.05H305.798C305.798 370.882 305.99 369.912 306.111 369.494C306.218 369.121 306.203 369.405 305.764 369.912C305.553 370.156 305.298 370.386 305.02 370.579C304.744 370.77 304.511 370.879 304.368 370.934C304.103 371.037 304.316 370.89 305.306 370.89V356.143ZM291.05 372.61H276.303V379.247H291.05H305.798V372.61H291.05ZM291.05 379.247H276.303C276.303 386.479 277.791 394.654 283.32 401.154C289.238 408.11 297.437 410.462 305.06 410.462V395.715V380.967C304.137 380.967 303.989 380.828 304.311 380.954C304.48 381.021 304.734 381.143 305.023 381.347C305.314 381.553 305.574 381.793 305.785 382.042C306.221 382.554 306.227 382.828 306.114 382.428C305.989 381.987 305.798 380.994 305.798 379.247H291.05ZM305.06 395.715V410.462H312.188V395.715V380.967H305.06V395.715ZM312.188 395.715V410.462C320.587 410.462 328.831 407.95 335.372 401.736L325.215 391.045L315.058 380.353C315.044 380.366 314.604 380.967 312.188 380.967V395.715ZM325.215 391.045L334.128 402.794L341.256 397.386L332.343 385.637L323.43 373.888L316.302 379.296L325.215 391.045ZM345.861 452.983V438.236C345.999 438.236 346.802 438.256 347.934 438.733C349.156 439.249 350.301 440.106 351.162 441.194C352.709 443.151 352.252 444.391 352.252 442.414H337.504H322.757C322.757 447.483 323.692 454.007 328.026 459.488C332.881 465.628 339.761 467.73 345.861 467.73V452.983ZM337.504 442.414H352.252V424.963H337.504H322.757V442.414H337.504ZM337.504 424.963H352.252C352.252 419.88 350.344 415.67 348.3 412.605L336.03 420.785L323.759 428.965C323.682 428.849 322.757 427.424 322.757 424.963H337.504ZM336.03 420.785L348.675 413.197C346.957 410.334 344.842 407.759 342.525 405.441L332.097 415.869L321.669 426.297C322.629 427.257 323.136 427.959 323.384 428.372L336.03 420.785ZM332.097 415.869L341.499 404.508L334.372 398.609L324.969 409.97L315.567 421.331L322.695 427.23L332.097 415.869ZM324.969 409.97L333.892 398.229C328.597 394.205 321.784 390.553 313.909 390.553V405.3V420.048C313.193 420.048 312.976 419.877 313.395 420.054C313.834 420.239 314.715 420.7 316.046 421.711L324.969 409.97ZM313.909 405.3V390.553H305.06V405.3V420.048H313.909V405.3ZM305.06 405.3V390.553C298.117 390.553 290.201 392.299 284.125 398.375C278.049 404.451 276.303 412.367 276.303 419.31H291.05H305.798C305.798 418.16 305.947 417.754 305.917 417.844C305.897 417.904 305.826 418.093 305.666 418.36C305.503 418.633 305.276 418.936 304.981 419.231C304.686 419.525 304.383 419.753 304.11 419.916C303.843 420.076 303.654 420.146 303.594 420.166C303.504 420.196 303.91 420.048 305.06 420.048V405.3ZM291.05 419.31H276.303V441.677H291.05H305.798V419.31H291.05ZM291.05 441.677H276.303C276.303 442.674 276.203 443.056 276.218 442.998C276.237 442.922 276.436 442.183 277.163 441.227C277.952 440.191 279.052 439.313 280.294 438.769C281.449 438.263 282.284 438.236 282.448 438.236V452.983V467.73C288.835 467.73 295.815 465.422 300.636 459.086C304.878 453.512 305.798 446.897 305.798 441.677H291.05ZM282.448 452.983V438.236C282.728 438.236 283.679 438.287 284.921 438.867C286.24 439.482 287.297 440.422 287.996 441.401C288.63 442.288 288.755 442.899 288.729 442.793C288.702 442.68 288.593 442.116 288.593 440.94H273.845H259.098C259.098 446.264 259.969 452.906 263.996 458.544C268.675 465.096 275.704 467.73 282.448 467.73V452.983ZM273.845 440.94H288.593V364.499H273.845H259.098V440.94H273.845ZM273.845 364.499H288.593C288.593 362.764 288.826 361.867 288.94 361.541C289.027 361.295 289 361.482 288.723 361.745C288.116 362.32 288.545 361.304 292.771 361.304V346.557V331.81C284.38 331.81 275.346 333.784 268.43 340.34C261.368 347.036 259.098 356.039 259.098 364.499H273.845ZM292.771 346.557V361.304H333.572V346.557V331.81H292.771V346.557ZM333.572 346.557V361.304C336.171 361.304 337.939 361.566 339.061 361.862C340.157 362.151 340.414 362.411 340.278 362.303C340.071 362.14 339.874 361.864 339.799 361.687C339.762 361.599 339.962 362.015 339.962 363.271H354.709H369.457C369.457 354.384 366.474 345.415 358.572 339.167C351.33 333.441 342.163 331.81 333.572 331.81V346.557ZM354.709 363.271H339.962V379.493H354.709H369.457V363.271H354.709ZM354.709 379.493L340.177 376.987C340.225 376.709 340.228 377.133 339.399 378.308C338.561 379.497 337.085 381.147 334.641 383.205L344.141 394.486L353.64 405.766C360.846 399.698 367.543 391.852 369.242 381.998L354.709 379.493ZM344.141 394.486L334.928 382.97C330.695 386.357 325.707 392.201 325.707 400.63H340.454H355.201C355.201 402.552 354.611 404.101 354.021 405.084C353.498 405.956 353.082 406.218 353.353 406.001L344.141 394.486ZM340.454 400.63H325.707C325.707 408.581 330.297 414.273 333.86 417.582L343.895 406.775L353.93 395.968C353.557 395.623 353.801 395.757 354.181 396.436C354.601 397.186 355.201 398.643 355.201 400.63H340.454ZM343.895 406.775L333.738 417.467C336.603 420.189 338.423 422.289 339.488 423.79C340.652 425.43 340.351 425.566 340.163 424.438L354.709 422.014L369.256 419.589C368.413 414.529 365.982 410.159 363.541 406.72C361.001 403.14 357.741 399.587 354.052 396.083L343.895 406.775ZM354.709 422.014H339.962V441.923H354.709H369.457V422.014H354.709ZM354.709 441.923H339.962C339.962 444.034 339.475 442.888 340.982 441.005C341.816 439.963 342.916 439.156 344.06 438.679C345.115 438.24 345.825 438.236 345.861 438.236V452.983V467.73C352.065 467.73 359.055 465.629 364.013 459.431C368.469 453.861 369.457 447.185 369.457 441.923H354.709ZM427.152 356.143V341.395H410.438V356.143V370.89H427.152V356.143ZM410.438 356.143V341.395C403.061 341.395 394.865 343.368 388.699 349.843C382.66 356.184 380.944 364.367 380.944 371.627H395.691H410.438C410.438 370.916 410.481 370.377 410.534 369.986C410.587 369.596 410.646 369.385 410.668 369.315C410.689 369.249 410.67 369.331 410.569 369.508C410.464 369.691 410.297 369.932 410.057 370.184C409.815 370.438 409.556 370.644 409.312 370.798C409.074 370.948 408.905 371.013 408.858 371.03C408.816 371.044 408.906 371.008 409.169 370.969C409.434 370.929 409.849 370.89 410.438 370.89V356.143ZM395.691 371.627H380.944V380.967H395.691H410.438V371.627H395.691ZM395.691 380.967H380.944C380.944 388.095 382.698 396.161 388.801 402.368C394.949 408.62 403.022 410.462 410.192 410.462V395.715V380.967C409.603 380.967 409.185 380.929 408.914 380.89C408.644 380.851 408.547 380.814 408.582 380.826C408.623 380.84 408.792 380.902 409.037 381.052C409.158 381.126 409.29 381.216 409.428 381.325C409.566 381.434 409.701 381.556 409.831 381.688C409.961 381.82 410.078 381.955 410.18 382.089C410.283 382.223 410.366 382.349 410.431 382.46C410.564 382.685 410.61 382.824 410.611 382.826C410.611 382.826 410.61 382.824 410.609 382.819C410.607 382.815 410.605 382.808 410.603 382.799C410.598 382.781 410.591 382.753 410.582 382.716C410.565 382.64 410.543 382.527 410.521 382.372C410.477 382.058 410.438 381.598 410.438 380.967H395.691ZM410.192 395.715V410.462H427.643V395.715V380.967H410.192V395.715ZM427.643 395.715V410.462C435.749 410.462 444.156 407.754 450.05 400.361C455.436 393.606 456.892 385.156 456.892 377.526H442.145H427.397C427.397 379.626 427.183 380.954 426.986 381.696C426.796 382.41 426.685 382.355 426.988 381.974C427.347 381.524 427.857 381.157 428.299 380.972C428.652 380.824 428.544 380.967 427.643 380.967V395.715ZM442.145 377.526H456.892V368.432H442.145H427.397V377.526H442.145ZM442.145 368.432H456.892C456.892 361.203 454.545 353.383 447.745 347.81C441.507 342.696 433.789 341.395 427.152 341.395V356.143V370.89C428.691 370.89 429.518 371.053 429.824 371.137C430.097 371.211 429.691 371.148 429.048 370.62C428.73 370.36 428.415 370.034 428.136 369.654C427.859 369.275 427.669 368.912 427.547 368.611C427.307 368.021 427.397 367.855 427.397 368.432H442.145ZM442.145 438.727H456.892V417.098H442.145H427.397V438.727H442.145ZM442.145 417.098H456.892C456.892 409.85 454.477 402.066 447.632 396.568C441.405 391.566 433.736 390.307 427.152 390.307V405.054V419.802C428.712 419.802 429.564 419.964 429.897 420.053C430.201 420.134 429.807 420.082 429.161 419.563C428.839 419.304 428.514 418.976 428.221 418.584C427.929 418.193 427.723 417.811 427.587 417.481C427.317 416.832 427.397 416.595 427.397 417.098H442.145ZM427.152 405.054V390.307H410.438V405.054V419.802H427.152V405.054ZM410.438 405.054V390.307C403.893 390.307 396.245 391.583 390.049 396.643C383.282 402.17 380.944 409.933 380.944 417.098H395.691H410.438C410.438 416.568 410.522 416.776 410.266 417.402C410.136 417.721 409.937 418.099 409.649 418.491C409.361 418.883 409.035 419.219 408.706 419.488C408.041 420.03 407.612 420.104 407.86 420.037C408.14 419.96 408.936 419.802 410.438 419.802V405.054ZM395.691 417.098H380.944V438.973H395.691H410.438V417.098H395.691ZM395.691 438.973H380.944C380.944 440.323 380.826 441.06 380.764 441.336C380.701 441.617 380.761 441.134 381.306 440.324C381.917 439.417 382.925 438.425 384.307 437.74C385.626 437.087 386.69 437.007 387.088 437.007V451.754V466.501C394.192 466.501 401.245 463.522 405.774 456.793C409.605 451.102 410.438 444.424 410.438 438.973H395.691ZM387.088 451.754V437.007C387.29 437.007 388.165 437.042 389.35 437.572C390.619 438.14 391.706 439.039 392.464 440.058C393.16 440.992 393.333 441.689 393.336 441.703C393.336 441.704 393.233 441.26 393.233 440.202H378.486H363.738C363.738 445.455 364.64 452.077 368.808 457.674C373.584 464.087 380.583 466.501 387.088 466.501V451.754ZM378.486 440.202H393.233V364.254H378.486H363.738V440.202H378.486ZM378.486 364.254H393.233C393.233 362.507 393.459 361.584 393.578 361.233C393.672 360.956 393.648 361.164 393.327 361.481C392.57 362.228 392.67 361.304 396.428 361.304V346.557V331.81C388.225 331.81 379.354 333.836 372.616 340.482C365.84 347.164 363.738 356.03 363.738 364.254H378.486ZM396.428 346.557V361.304H438.949V346.557V331.81H396.428V346.557ZM438.949 346.557V361.304C443.95 361.304 444.947 362.434 444.586 362.121C444.363 361.927 444.279 361.722 444.309 361.801C444.373 361.968 444.603 362.686 444.603 364.254H459.35H474.097C474.097 355.492 471.475 346.401 463.913 339.841C456.753 333.63 447.549 331.81 438.949 331.81V346.557ZM459.35 364.254H444.603V439.956H459.35H474.097V364.254H459.35ZM459.35 439.956H444.603C444.603 441.074 444.496 441.578 444.482 441.635C444.471 441.682 444.619 441.027 445.283 440.116C446.012 439.117 447.085 438.197 448.38 437.605C449.593 437.05 450.506 437.007 450.747 437.007V451.754V466.501C457.372 466.501 464.387 463.978 469.115 457.493C473.212 451.876 474.097 445.244 474.097 439.956H459.35ZM450.747 451.754V437.007C451.186 437.007 452.287 437.097 453.629 437.775C455.029 438.482 456.019 439.489 456.601 440.371C457.118 441.153 457.159 441.593 457.085 441.256C457.012 440.927 456.892 440.133 456.892 438.727H442.145H427.397C427.397 444.225 428.22 450.917 431.989 456.624C436.466 463.404 443.524 466.501 450.747 466.501V451.754ZM564.482 418.327H579.229V417.155L579.044 415.997L564.482 418.327ZM564.482 375.56L579.028 377.984L579.229 376.78V375.56H564.482ZM553.913 390.307L544.775 378.732L544.738 378.762L544.7 378.792L553.913 390.307ZM553.667 403.088L543.632 413.895L543.643 413.905L543.653 413.914L553.667 403.088ZM541.869 411.691L552.831 401.825L551.896 400.786L550.782 399.942L541.869 411.691ZM534.741 406.283L543.655 394.534L543.536 394.444L543.415 394.357L534.741 406.283ZM529.088 403.088L534.76 389.475L534.76 389.475L529.088 403.088ZM545.556 416.361L533.286 424.541L533.822 425.345L534.458 426.072L545.556 416.361ZM541.869 382.442L551.272 393.803L551.806 393.361L552.297 392.87L541.869 382.442ZM545.556 377.526L533.114 369.609L532.848 370.028L532.61 370.464L545.556 377.526ZM529.088 391.536L524.425 377.546L524.236 377.609L524.049 377.677L529.088 391.536ZM534.741 388.341L544.08 399.755L544.112 399.728L544.144 399.702L534.741 388.341ZM564.482 418.327H549.735V435.286H564.482H579.229V418.327H564.482ZM564.482 435.286H549.735C549.735 436.6 549.532 437.078 549.547 437.041C549.599 436.913 549.781 436.623 550.036 436.414C550.229 436.256 550.071 436.47 549.122 436.729C548.139 436.997 546.523 437.253 544.081 437.253V452V466.747C552.52 466.747 561.588 465.078 568.728 459.229C576.43 452.919 579.229 443.993 579.229 435.286H564.482ZM544.081 452V437.253H503.526V452V466.747H544.081V452ZM503.526 452V437.253C498.721 437.253 497.871 436.158 498.316 436.547C498.573 436.773 498.67 437.006 498.646 436.942C498.589 436.791 498.365 436.091 498.365 434.549H483.618H468.87C468.87 443.181 471.422 452.195 478.874 458.727C485.955 464.934 495.059 466.747 503.526 466.747V452ZM483.618 434.549H498.365V364.499H483.618H468.87V434.549H483.618ZM483.618 364.499H498.365C498.365 362.835 498.6 362.018 498.693 361.765C498.755 361.598 498.705 361.783 498.468 361.997C498.02 362.401 498.807 361.304 503.526 361.304V346.557V331.81C494.974 331.81 485.806 333.704 478.722 340.088C471.347 346.735 468.87 355.827 468.87 364.499H483.618ZM503.526 346.557V361.304H544.081V346.557V331.81H503.526V346.557ZM544.081 346.557V361.304C549.163 361.304 550.226 362.428 549.874 362.132C549.787 362.058 549.685 361.952 549.596 361.827C549.509 361.704 549.482 361.631 549.492 361.655C549.518 361.721 549.735 362.32 549.735 363.762H564.482H579.229C579.229 355.033 576.523 346.023 568.889 339.585C561.737 333.553 552.6 331.81 544.081 331.81V346.557ZM564.482 363.762H549.735V375.56H564.482H579.229V363.762H564.482ZM564.482 375.56L549.935 373.135C549.967 372.945 549.963 373.332 549.238 374.343C548.487 375.391 547.12 376.881 544.775 378.732L553.913 390.307L563.051 401.882C570.536 395.973 577.337 388.136 579.028 377.984L564.482 375.56ZM553.913 390.307L544.7 378.792C540.125 382.452 535.479 388.412 535.479 396.698H550.226H564.973C564.973 398.324 564.504 399.74 563.922 400.749C563.401 401.652 562.948 401.965 563.126 401.823L553.913 390.307ZM550.226 396.698H535.479C535.479 404.533 539.756 410.295 543.632 413.895L553.667 403.088L563.702 392.281C563.411 392.011 563.689 392.193 564.071 392.901C564.496 393.69 564.973 395.008 564.973 396.698H550.226ZM553.667 403.088L543.653 413.914C546.475 416.524 548.24 418.543 549.26 419.98C550.353 421.52 550.084 421.683 549.92 420.657L564.482 418.327L579.044 415.997C578.224 410.875 575.825 406.45 573.313 402.91C570.728 399.267 567.414 395.715 563.681 392.262L553.667 403.088ZM541.869 411.691L550.782 399.942L543.655 394.534L534.741 406.283L525.828 418.032L532.956 423.44L541.869 411.691ZM534.741 406.283L543.415 394.357C540.725 392.4 537.838 390.758 534.76 389.475L529.088 403.088L523.416 416.701C524.272 417.057 525.153 417.545 526.068 418.21L534.741 406.283ZM529.088 403.088L534.76 389.475C531.511 388.121 527.755 387.112 523.681 387.112V401.859V416.607C523.271 416.607 523.03 416.555 522.994 416.547C522.96 416.539 523.096 416.568 523.416 416.701L529.088 403.088ZM523.681 401.859V387.112H515.324V401.859V416.607H523.681V401.859ZM515.324 401.859V387.112C507.425 387.112 499.07 389.619 493.106 396.797C487.576 403.451 486.075 411.816 486.075 419.31H500.823H515.57C515.57 417.375 515.776 416.207 515.941 415.612C516.096 415.053 516.153 415.211 515.79 415.647C515.613 415.86 515.386 416.078 515.12 416.27C514.857 416.46 514.624 416.575 514.47 416.637C514.176 416.755 514.356 416.607 515.324 416.607V401.859ZM500.823 419.31H486.075V429.633H500.823H515.57V419.31H500.823ZM500.823 429.633H486.075C486.075 436.756 488.125 444.682 494.644 450.549C500.868 456.15 508.742 457.653 515.57 457.653V442.906V428.159C514.171 428.159 513.505 427.996 513.356 427.951C513.258 427.922 513.74 428.054 514.375 428.626C514.68 428.9 514.949 429.214 515.167 429.541C515.383 429.865 515.508 430.14 515.574 430.318C515.697 430.651 515.57 430.518 515.57 429.633H500.823ZM515.57 442.906V457.653H534.987V442.906V428.159H515.57V442.906ZM534.987 442.906V457.653C541.283 457.653 548.728 456.11 554.526 450.428C560.38 444.691 562.024 437.226 562.024 430.862H547.277H532.529C532.529 431.659 532.423 431.747 532.547 431.382C532.696 430.943 533.084 430.145 533.882 429.362C534.674 428.586 535.44 428.247 535.785 428.135C536.061 428.044 535.876 428.159 534.987 428.159V442.906ZM547.277 430.862H562.024V420.048H547.277H532.529V430.862H547.277ZM547.277 420.048H562.024C562.024 413.875 558.977 409.304 556.655 406.65L545.556 416.361L534.458 426.072C534.429 426.039 532.529 423.926 532.529 420.048H547.277ZM545.556 416.361L557.827 408.18C556.367 405.991 554.672 403.872 552.831 401.825L541.869 411.691L530.908 421.556C532.016 422.787 532.779 423.781 533.286 424.541L545.556 416.361ZM541.869 382.442L552.297 392.87C554.752 390.415 556.834 387.647 558.503 384.588L545.556 377.526L532.61 370.464C532.312 371.011 531.936 371.519 531.441 372.014L541.869 382.442ZM545.556 377.526L557.998 385.444C560.96 380.788 562.024 375.677 562.024 370.89H547.277H532.529C532.529 371.131 532.503 371.079 532.571 370.814C532.645 370.532 532.804 370.096 533.114 369.609L545.556 377.526ZM547.277 370.89H562.024V365.483H547.277H532.529V370.89H547.277ZM547.277 365.483H562.024C562.024 358.844 559.629 351.678 553.128 346.736C547.39 342.376 540.533 341.395 534.987 341.395V356.143V370.89C536.15 370.89 536.676 371.005 536.742 371.022C536.791 371.034 536.155 370.883 535.281 370.219C534.327 369.494 533.508 368.471 533.003 367.32C532.536 366.255 532.529 365.525 532.529 365.483H547.277ZM534.987 356.143V341.395H515.57V356.143V370.89H534.987V356.143ZM515.57 356.143V341.395C507.603 341.395 499.19 343.914 493.18 351.126C487.6 357.823 486.075 366.256 486.075 373.839H500.823H515.57C515.57 371.866 515.781 370.666 515.954 370.044C516.116 369.458 516.185 369.593 515.839 370.008C515.445 370.48 514.944 370.802 514.595 370.941C514.336 371.045 514.557 370.89 515.57 370.89V356.143ZM500.823 373.839H486.075V378.018H500.823H515.57V373.839H500.823ZM500.823 378.018H486.075C486.075 385 487.756 392.968 493.719 399.141C499.774 405.408 507.758 407.267 514.833 407.267V392.519V377.772C514.296 377.772 513.928 377.737 513.706 377.704C513.486 377.671 513.435 377.645 513.513 377.672C513.597 377.701 513.801 377.782 514.076 377.952C514.355 378.126 514.652 378.358 514.931 378.647C515.21 378.936 515.414 379.221 515.552 379.459C515.687 379.692 515.734 379.836 515.736 379.842C515.736 379.843 515.693 379.708 515.65 379.4C515.608 379.092 515.57 378.638 515.57 378.018H500.823ZM514.833 392.519V407.267H523.681V392.519V377.772H514.833V392.519ZM523.681 392.519V407.267C527.31 407.267 530.815 406.6 534.128 405.396L529.088 391.536L524.049 377.677C523.892 377.734 523.793 377.756 523.747 377.764C523.702 377.772 523.683 377.772 523.681 377.772V392.519ZM529.088 391.536L533.752 405.527C537.618 404.238 541.06 402.226 544.08 399.755L534.741 388.341L525.403 376.927C524.819 377.405 524.492 377.523 524.425 377.546L529.088 391.536ZM534.741 388.341L544.144 399.702L551.272 393.803L541.869 382.442L532.467 371.081L525.339 376.98L534.741 388.341ZM620.702 442.906V457.653H637.907V442.906V428.159H620.702V442.906ZM637.907 442.906V457.653C645.034 457.653 653.101 455.899 659.308 449.796C665.56 443.647 667.402 435.575 667.402 428.404H652.654H637.907C637.907 428.994 637.869 429.412 637.83 429.683C637.791 429.953 637.754 430.05 637.766 430.014C637.78 429.974 637.842 429.805 637.992 429.56C638.066 429.439 638.156 429.307 638.265 429.169C638.374 429.031 638.496 428.895 638.628 428.765C638.76 428.635 638.895 428.519 639.029 428.416C639.163 428.314 639.289 428.231 639.4 428.165C639.625 428.033 639.764 427.987 639.766 427.986C639.766 427.986 639.764 427.987 639.759 427.988C639.755 427.989 639.748 427.991 639.739 427.994C639.72 427.999 639.693 428.006 639.655 428.014C639.58 428.031 639.467 428.054 639.312 428.075C638.998 428.119 638.538 428.159 637.907 428.159V442.906ZM652.654 428.404H667.402V370.153H652.654H637.907V428.404H652.654ZM652.654 370.153H667.402C667.402 362.944 665.426 354.898 658.975 348.87C652.712 343.018 644.693 341.395 637.661 341.395V356.143V370.89C638.342 370.89 638.856 370.93 639.224 370.979C639.592 371.028 639.783 371.082 639.835 371.098C639.883 371.113 639.783 371.087 639.586 370.976C639.383 370.862 639.118 370.682 638.838 370.42C638.556 370.157 638.32 369.868 638.137 369.583C637.957 369.303 637.865 369.084 637.827 368.978C637.761 368.791 637.907 369.092 637.907 370.153H652.654ZM637.661 356.143V341.395H620.948V356.143V370.89H637.661V356.143ZM620.948 356.143V341.395C613.942 341.395 605.949 343.046 599.73 348.953C593.37 354.995 591.453 363.011 591.453 370.153H606.201H620.948C620.948 369.626 620.983 369.271 621.014 369.062C621.045 368.855 621.069 368.816 621.038 368.906C621.004 369.001 620.918 369.213 620.743 369.49C620.565 369.772 620.33 370.066 620.045 370.337C619.76 370.607 619.485 370.799 619.264 370.925C619.049 371.048 618.926 371.084 618.948 371.077C618.973 371.069 619.137 371.021 619.475 370.975C619.813 370.929 620.297 370.89 620.948 370.89V356.143ZM606.201 370.153H591.453V428.896H606.201H620.948V370.153H606.201ZM606.201 428.896H591.453C591.453 435.971 593.312 443.955 599.579 450.009C605.752 455.973 613.72 457.653 620.702 457.653V442.906V428.159C620.082 428.159 619.628 428.121 619.319 428.078C619.012 428.036 618.877 427.992 618.878 427.993C618.884 427.995 619.028 428.042 619.261 428.177C619.499 428.315 619.784 428.519 620.072 428.797C620.362 429.077 620.594 429.373 620.768 429.653C620.938 429.927 621.019 430.132 621.048 430.215C621.075 430.294 621.048 430.243 621.016 430.022C620.983 429.8 620.948 429.433 620.948 428.896H606.201ZM669.86 435.286H655.112C655.112 436.639 654.908 437.159 654.909 437.156C654.946 437.064 655.116 436.765 655.4 436.527C655.629 436.335 655.538 436.516 654.687 436.754C653.798 437.002 652.285 437.253 649.951 437.253V452V466.747C658.292 466.747 667.296 465.05 674.364 459.116C681.927 452.768 684.607 443.874 684.607 435.286H669.86ZM649.951 452V437.253H608.904V452V466.747H649.951V452ZM608.904 452V437.253C606.57 437.253 605.057 437.002 604.168 436.754C603.317 436.516 603.226 436.335 603.455 436.527C603.739 436.765 603.909 437.064 603.946 437.156C603.947 437.159 603.743 436.639 603.743 435.286H588.995H574.248C574.248 443.874 576.928 452.768 584.491 459.116C591.559 465.05 600.563 466.747 608.904 466.747V452ZM588.995 435.286H603.743V363.762H588.995H574.248V435.286H588.995ZM588.995 363.762H603.743C603.743 362.283 603.96 361.642 603.999 361.542C604.003 361.53 603.882 361.785 603.615 362.016C603.174 362.398 604.056 361.304 608.904 361.304V346.557V331.81C600.479 331.81 591.408 333.584 584.33 339.7C576.84 346.173 574.248 355.147 574.248 363.762H588.995ZM608.904 346.557V361.304H649.705V346.557V331.81H608.904V346.557ZM649.705 346.557V361.304C654.67 361.304 655.643 362.413 655.246 362.074C655.152 361.994 655.048 361.883 654.96 361.758C654.874 361.635 654.85 361.566 654.863 361.599C654.895 361.682 655.112 362.301 655.112 363.762H669.86H684.607C684.607 355.09 681.958 346.097 674.396 339.642C667.281 333.568 658.176 331.81 649.705 331.81V346.557ZM669.86 363.762H655.112V435.286H669.86H684.607V363.762H669.86ZM774.992 356.143L789.739 356.188L789.739 356.165V356.143H774.992ZM774.746 436.024L789.491 436.251L789.493 436.16L789.493 436.069L774.746 436.024ZM744.268 442.906V457.653C750.829 457.653 758.483 456.081 764.452 450.333C770.524 444.486 772.288 436.803 772.288 430.125H757.541H742.793C742.793 431.021 742.672 431.19 742.775 430.893C742.905 430.518 743.26 429.794 743.993 429.088C744.715 428.393 745.374 428.128 745.568 428.065C745.697 428.024 745.342 428.159 744.268 428.159V442.906ZM757.541 430.125H772.288V416.115H757.541H742.793V430.125H757.541ZM757.541 416.115H772.288C772.288 409.215 770.335 401.434 763.977 395.634C757.876 390.069 750.156 388.587 743.531 388.587V403.334V418.081C744.792 418.081 745.331 418.23 745.369 418.242C745.373 418.243 745.228 418.199 744.987 418.067C744.74 417.932 744.428 417.724 744.099 417.424C743.768 417.122 743.48 416.782 743.249 416.43C743.021 416.082 742.886 415.784 742.813 415.584C742.676 415.209 742.793 415.293 742.793 416.115H757.541ZM743.531 403.334V388.587H713.053V403.334V418.081H743.531V403.334ZM713.053 403.334V388.587C710.802 388.587 709.347 388.354 708.499 388.126C707.682 387.906 707.643 387.75 707.941 387.99C708.304 388.284 708.587 388.696 708.712 388.998C708.799 389.209 708.629 388.935 708.629 387.849H693.882H679.134C679.134 396.217 681.879 404.854 689.408 410.935C696.335 416.53 705.062 418.081 713.053 418.081V403.334ZM693.882 387.849H708.629V355.897H693.882H679.134V387.849H693.882ZM693.882 355.897H708.629C708.629 353.995 709.077 355.305 707.47 357.28C706.593 358.357 705.46 359.164 704.309 359.636C703.249 360.07 702.533 360.075 702.484 360.075V345.328V330.581C696.449 330.581 689.542 332.582 684.595 338.661C680.12 344.158 679.134 350.753 679.134 355.897H693.882ZM702.484 345.328V360.075C702.359 360.075 701.563 360.056 700.438 359.574C699.225 359.054 698.113 358.199 697.295 357.147C696.536 356.171 696.31 355.39 696.274 355.251C696.243 355.134 696.339 355.453 696.339 356.388H711.087H725.834C725.834 351.197 724.894 344.59 720.577 339.039C715.712 332.784 708.753 330.581 702.484 330.581V345.328ZM711.087 356.388H696.339V380.721H711.087H725.834V356.388H711.087ZM711.087 380.721H696.339C696.339 387.77 698.374 395.638 704.857 401.462C711.039 407.016 718.848 408.496 725.588 408.496V393.748V379.001C724.228 379.001 723.595 378.843 723.474 378.807C723.404 378.786 723.911 378.931 724.567 379.521C724.883 379.804 725.162 380.128 725.389 380.469C725.614 380.805 725.747 381.096 725.819 381.29C725.955 381.657 725.834 381.562 725.834 380.721H711.087ZM725.588 393.748V408.496H743.039V393.748V379.001H725.588V393.748ZM743.039 393.748V408.496C749.779 408.496 757.588 407.016 763.77 401.462C770.254 395.638 772.288 387.77 772.288 380.721H757.541H742.793C742.793 381.562 742.672 381.657 742.808 381.29C742.88 381.096 743.013 380.805 743.238 380.469C743.465 380.128 743.745 379.804 744.06 379.521C744.717 378.931 745.223 378.786 745.153 378.807C745.032 378.843 744.399 379.001 743.039 379.001V393.748ZM757.541 380.721H772.288V356.388H757.541H742.793V380.721H757.541ZM757.541 356.388H772.288C772.288 355.453 772.384 355.134 772.354 355.251C772.317 355.39 772.092 356.171 771.332 357.147C770.514 358.199 769.402 359.054 768.189 359.574C767.064 360.056 766.268 360.075 766.143 360.075V345.328V330.581C759.874 330.581 752.915 332.784 748.05 339.039C743.733 344.59 742.793 351.197 742.793 356.388H757.541ZM766.143 345.328V360.075C766.135 360.075 765.97 360.075 765.68 360.024C765.387 359.973 764.961 359.869 764.45 359.661C763.337 359.208 762.228 358.425 761.366 357.37C759.781 355.434 760.244 354.173 760.244 356.143H774.992H789.739C789.739 350.903 788.727 344.234 784.193 338.693C779.196 332.586 772.234 330.581 766.143 330.581V345.328ZM774.992 356.143L760.244 356.097L759.999 435.978L774.746 436.024L789.493 436.069L789.739 356.188L774.992 356.143ZM774.746 436.024L760 435.797C759.981 437.033 759.789 437.472 759.812 437.416C759.869 437.276 760.068 436.944 760.389 436.677C760.659 436.452 760.632 436.593 759.891 436.801C759.111 437.019 757.737 437.253 755.574 437.253V452V466.747C763.624 466.747 772.357 465.097 779.271 459.335C786.647 453.188 789.363 444.578 789.491 436.251L774.746 436.024ZM755.574 452V437.253H701.009V452V466.747H755.574V452ZM701.009 452V437.253C699.774 437.253 701.407 436.965 703.745 438.497C705.116 439.395 706.505 440.787 707.471 442.686C708.409 444.53 708.629 446.219 708.629 447.33H693.882H679.134C679.134 453.293 681.782 459.368 687.582 463.168C692.296 466.256 697.493 466.747 701.009 466.747V452ZM693.882 447.33H708.629C708.629 448.761 708.301 450.727 707.147 452.737C705.992 454.75 704.452 456.034 703.192 456.765C701.117 457.97 699.905 457.653 701.501 457.653V442.906V428.159C698.017 428.159 692.996 428.579 688.381 431.259C682.542 434.649 679.134 440.627 679.134 447.33H693.882ZM701.501 442.906V457.653H744.268V442.906V428.159H701.501V442.906Z" fill="#6E0C27" mask="url(#path-2-outside-1_446_2)"/>
<mask id="path-4-outside-2_446_2" maskUnits="userSpaceOnUse" x="62" y="344" width="709" height="111" fill="black">
<rect fill="white" x="62" y="344" width="709" height="111"/>
<path d="M144.908 418.327V435.286C144.908 446.429 138.108 452 124.507 452H83.9524C70.6799 452 64.0436 446.183 64.0436 434.549V364.499C64.0436 352.538 70.6799 346.557 83.9524 346.557H124.507C138.108 346.557 144.908 352.292 144.908 363.762V375.56C144.089 380.476 140.566 385.391 134.339 390.307C131.881 392.274 130.652 394.404 130.652 396.698C130.652 398.828 131.799 400.958 134.093 403.088C140.648 409.151 144.252 414.231 144.908 418.327ZM122.295 411.691L115.168 406.283C113.365 404.973 111.481 403.907 109.514 403.088C107.548 402.269 105.746 401.859 104.107 401.859H95.7503C86.0826 401.859 81.2488 407.676 81.2488 419.31V429.633C81.2488 438.482 86.1645 442.906 95.996 442.906H115.413C123.606 442.906 127.703 438.891 127.703 430.862V420.048C127.703 418.901 127.129 417.672 125.982 416.361C124.999 414.886 123.77 413.329 122.295 411.691ZM122.295 382.442C123.77 380.967 124.999 379.329 125.982 377.526C127.129 375.724 127.703 373.512 127.703 370.89V365.483C127.703 359.256 123.606 356.143 115.413 356.143H95.996C86.1645 356.143 81.2488 362.042 81.2488 373.839V378.018C81.2488 387.685 85.9187 392.519 95.2587 392.519H104.107C105.909 392.519 107.712 392.192 109.514 391.536C111.481 390.881 113.365 389.816 115.168 388.341L122.295 382.442ZM202.357 442.906H242.666C247.91 442.906 250.531 444.462 250.531 447.576C250.531 450.525 247.992 452 242.912 452H189.576C176.303 452 169.667 446.593 169.667 435.778V363.271C169.667 352.128 176.303 346.557 189.576 346.557H242.912C247.992 346.557 250.531 348.114 250.531 351.227C250.531 354.504 247.91 356.143 242.666 356.143H202.357C192.034 356.143 186.872 360.403 186.872 368.924V379.493C186.872 388.177 191.87 392.519 201.865 392.519H242.42C247.828 392.519 250.531 393.912 250.531 396.698C250.531 400.139 247.91 401.859 242.666 401.859H201.865C191.87 401.859 186.872 406.201 186.872 414.886V430.616C186.872 438.809 192.034 442.906 202.357 442.906ZM326.816 385.637C330.257 382.196 331.977 377.854 331.977 372.61V367.203C331.65 363.598 330.503 360.895 328.536 359.092C326.57 357.126 323.703 356.143 319.934 356.143H299.779C290.275 356.143 285.524 361.632 285.524 372.61V379.247C285.524 390.225 290.194 395.715 299.533 395.715H306.661C312.069 395.715 316.411 394.158 319.688 391.045L326.816 385.637ZM340.334 452.983C334.763 452.983 331.977 449.46 331.977 442.414V424.963C331.977 423.652 331.486 422.26 330.503 420.785C329.52 419.146 328.209 417.508 326.57 415.869L319.442 409.97C315.346 406.857 311.659 405.3 308.382 405.3H299.533C290.194 405.3 285.524 409.97 285.524 419.31V441.677C285.524 449.214 282.656 452.983 276.921 452.983C271.186 452.983 268.318 448.969 268.318 440.94V364.499C268.318 352.538 274.627 346.557 287.244 346.557H328.045C342.137 346.557 349.183 352.128 349.183 363.271V379.493C348.363 384.244 344.84 389.242 338.614 394.486C336.156 396.452 334.927 398.5 334.927 400.63C334.927 402.597 336.074 404.645 338.368 406.775C344.922 413.002 348.527 418.081 349.183 422.014V441.923C349.183 449.296 346.233 452.983 340.334 452.983ZM421.625 356.143H404.911C395.08 356.143 390.164 361.304 390.164 371.627V380.967C390.164 390.799 394.998 395.715 404.665 395.715H422.116C431.784 395.715 436.618 389.652 436.618 377.526V368.432C436.618 360.239 431.62 356.143 421.625 356.143ZM436.618 438.727V417.098C436.618 409.069 431.62 405.054 421.625 405.054H404.911C395.08 405.054 390.164 409.069 390.164 417.098V438.973C390.164 447.494 387.296 451.754 381.561 451.754C375.826 451.754 372.959 447.904 372.959 440.202V364.254C372.959 352.456 378.94 346.557 390.901 346.557H433.423C447.023 346.557 453.823 352.456 453.823 364.254V439.956C453.823 447.822 450.956 451.754 445.22 451.754C439.485 451.754 436.618 447.412 436.618 438.727ZM558.955 418.327V435.286C558.955 446.429 552.155 452 538.555 452H498C484.727 452 478.091 446.183 478.091 434.549V364.499C478.091 352.538 484.727 346.557 498 346.557H538.555C552.155 346.557 558.955 352.292 558.955 363.762V375.56C558.136 380.476 554.613 385.391 548.386 390.307C545.928 392.274 544.699 394.404 544.699 396.698C544.699 398.828 545.846 400.958 548.14 403.088C554.695 409.151 558.3 414.231 558.955 418.327ZM536.342 411.691L529.215 406.283C527.412 404.973 525.528 403.907 523.562 403.088C521.595 402.269 519.793 401.859 518.154 401.859H509.797C500.13 401.859 495.296 407.676 495.296 419.31V429.633C495.296 438.482 500.212 442.906 510.043 442.906H529.46C537.653 442.906 541.75 438.891 541.75 430.862V420.048C541.75 418.901 541.176 417.672 540.029 416.361C539.046 414.886 537.817 413.329 536.342 411.691ZM536.342 382.442C537.817 380.967 539.046 379.329 540.029 377.526C541.176 375.724 541.75 373.512 541.75 370.89V365.483C541.75 359.256 537.653 356.143 529.46 356.143H510.043C500.212 356.143 495.296 362.042 495.296 373.839V378.018C495.296 387.685 499.966 392.519 509.306 392.519H518.154C519.957 392.519 521.759 392.192 523.562 391.536C525.528 390.881 527.412 389.816 529.215 388.341L536.342 382.442ZM615.175 442.906H632.38C642.212 442.906 647.128 438.072 647.128 428.404V370.153C647.128 360.813 642.13 356.143 632.135 356.143H615.421C605.589 356.143 600.674 360.813 600.674 370.153V428.896C600.674 438.236 605.507 442.906 615.175 442.906ZM664.333 435.286C664.333 446.429 657.696 452 644.424 452H603.377C590.105 452 583.469 446.429 583.469 435.286V363.762C583.469 352.292 590.105 346.557 603.377 346.557H644.178C657.615 346.557 664.333 352.292 664.333 363.762V435.286ZM738.741 442.906C747.59 442.906 752.014 438.646 752.014 430.125V416.115C752.014 407.594 747.344 403.334 738.004 403.334H707.526C694.745 403.334 688.355 398.172 688.355 387.849V355.897C688.355 348.851 691.222 345.328 696.957 345.328C702.692 345.328 705.56 349.015 705.56 356.388V380.721C705.56 389.406 710.394 393.748 720.061 393.748H737.512C747.18 393.748 752.014 389.406 752.014 380.721V356.388C752.014 349.015 754.881 345.328 760.616 345.328C766.515 345.328 769.465 348.933 769.465 356.143L769.219 436.024C769.055 446.675 762.665 452 750.047 452H695.483C690.731 452 688.355 450.443 688.355 447.33C688.355 444.381 690.894 442.906 695.974 442.906H738.741Z"/>
</mask>
<path d="M144.908 418.327V435.286C144.908 446.429 138.108 452 124.507 452H83.9524C70.6799 452 64.0436 446.183 64.0436 434.549V364.499C64.0436 352.538 70.6799 346.557 83.9524 346.557H124.507C138.108 346.557 144.908 352.292 144.908 363.762V375.56C144.089 380.476 140.566 385.391 134.339 390.307C131.881 392.274 130.652 394.404 130.652 396.698C130.652 398.828 131.799 400.958 134.093 403.088C140.648 409.151 144.252 414.231 144.908 418.327ZM122.295 411.691L115.168 406.283C113.365 404.973 111.481 403.907 109.514 403.088C107.548 402.269 105.746 401.859 104.107 401.859H95.7503C86.0826 401.859 81.2488 407.676 81.2488 419.31V429.633C81.2488 438.482 86.1645 442.906 95.996 442.906H115.413C123.606 442.906 127.703 438.891 127.703 430.862V420.048C127.703 418.901 127.129 417.672 125.982 416.361C124.999 414.886 123.77 413.329 122.295 411.691ZM122.295 382.442C123.77 380.967 124.999 379.329 125.982 377.526C127.129 375.724 127.703 373.512 127.703 370.89V365.483C127.703 359.256 123.606 356.143 115.413 356.143H95.996C86.1645 356.143 81.2488 362.042 81.2488 373.839V378.018C81.2488 387.685 85.9187 392.519 95.2587 392.519H104.107C105.909 392.519 107.712 392.192 109.514 391.536C111.481 390.881 113.365 389.816 115.168 388.341L122.295 382.442ZM202.357 442.906H242.666C247.91 442.906 250.531 444.462 250.531 447.576C250.531 450.525 247.992 452 242.912 452H189.576C176.303 452 169.667 446.593 169.667 435.778V363.271C169.667 352.128 176.303 346.557 189.576 346.557H242.912C247.992 346.557 250.531 348.114 250.531 351.227C250.531 354.504 247.91 356.143 242.666 356.143H202.357C192.034 356.143 186.872 360.403 186.872 368.924V379.493C186.872 388.177 191.87 392.519 201.865 392.519H242.42C247.828 392.519 250.531 393.912 250.531 396.698C250.531 400.139 247.91 401.859 242.666 401.859H201.865C191.87 401.859 186.872 406.201 186.872 414.886V430.616C186.872 438.809 192.034 442.906 202.357 442.906ZM326.816 385.637C330.257 382.196 331.977 377.854 331.977 372.61V367.203C331.65 363.598 330.503 360.895 328.536 359.092C326.57 357.126 323.703 356.143 319.934 356.143H299.779C290.275 356.143 285.524 361.632 285.524 372.61V379.247C285.524 390.225 290.194 395.715 299.533 395.715H306.661C312.069 395.715 316.411 394.158 319.688 391.045L326.816 385.637ZM340.334 452.983C334.763 452.983 331.977 449.46 331.977 442.414V424.963C331.977 423.652 331.486 422.26 330.503 420.785C329.52 419.146 328.209 417.508 326.57 415.869L319.442 409.97C315.346 406.857 311.659 405.3 308.382 405.3H299.533C290.194 405.3 285.524 409.97 285.524 419.31V441.677C285.524 449.214 282.656 452.983 276.921 452.983C271.186 452.983 268.318 448.969 268.318 440.94V364.499C268.318 352.538 274.627 346.557 287.244 346.557H328.045C342.137 346.557 349.183 352.128 349.183 363.271V379.493C348.363 384.244 344.84 389.242 338.614 394.486C336.156 396.452 334.927 398.5 334.927 400.63C334.927 402.597 336.074 404.645 338.368 406.775C344.922 413.002 348.527 418.081 349.183 422.014V441.923C349.183 449.296 346.233 452.983 340.334 452.983ZM421.625 356.143H404.911C395.08 356.143 390.164 361.304 390.164 371.627V380.967C390.164 390.799 394.998 395.715 404.665 395.715H422.116C431.784 395.715 436.618 389.652 436.618 377.526V368.432C436.618 360.239 431.62 356.143 421.625 356.143ZM436.618 438.727V417.098C436.618 409.069 431.62 405.054 421.625 405.054H404.911C395.08 405.054 390.164 409.069 390.164 417.098V438.973C390.164 447.494 387.296 451.754 381.561 451.754C375.826 451.754 372.959 447.904 372.959 440.202V364.254C372.959 352.456 378.94 346.557 390.901 346.557H433.423C447.023 346.557 453.823 352.456 453.823 364.254V439.956C453.823 447.822 450.956 451.754 445.22 451.754C439.485 451.754 436.618 447.412 436.618 438.727ZM558.955 418.327V435.286C558.955 446.429 552.155 452 538.555 452H498C484.727 452 478.091 446.183 478.091 434.549V364.499C478.091 352.538 484.727 346.557 498 346.557H538.555C552.155 346.557 558.955 352.292 558.955 363.762V375.56C558.136 380.476 554.613 385.391 548.386 390.307C545.928 392.274 544.699 394.404 544.699 396.698C544.699 398.828 545.846 400.958 548.14 403.088C554.695 409.151 558.3 414.231 558.955 418.327ZM536.342 411.691L529.215 406.283C527.412 404.973 525.528 403.907 523.562 403.088C521.595 402.269 519.793 401.859 518.154 401.859H509.797C500.13 401.859 495.296 407.676 495.296 419.31V429.633C495.296 438.482 500.212 442.906 510.043 442.906H529.46C537.653 442.906 541.75 438.891 541.75 430.862V420.048C541.75 418.901 541.176 417.672 540.029 416.361C539.046 414.886 537.817 413.329 536.342 411.691ZM536.342 382.442C537.817 380.967 539.046 379.329 540.029 377.526C541.176 375.724 541.75 373.512 541.75 370.89V365.483C541.75 359.256 537.653 356.143 529.46 356.143H510.043C500.212 356.143 495.296 362.042 495.296 373.839V378.018C495.296 387.685 499.966 392.519 509.306 392.519H518.154C519.957 392.519 521.759 392.192 523.562 391.536C525.528 390.881 527.412 389.816 529.215 388.341L536.342 382.442ZM615.175 442.906H632.38C642.212 442.906 647.128 438.072 647.128 428.404V370.153C647.128 360.813 642.13 356.143 632.135 356.143H615.421C605.589 356.143 600.674 360.813 600.674 370.153V428.896C600.674 438.236 605.507 442.906 615.175 442.906ZM664.333 435.286C664.333 446.429 657.696 452 644.424 452H603.377C590.105 452 583.469 446.429 583.469 435.286V363.762C583.469 352.292 590.105 346.557 603.377 346.557H644.178C657.615 346.557 664.333 352.292 664.333 363.762V435.286ZM738.741 442.906C747.59 442.906 752.014 438.646 752.014 430.125V416.115C752.014 407.594 747.344 403.334 738.004 403.334H707.526C694.745 403.334 688.355 398.172 688.355 387.849V355.897C688.355 348.851 691.222 345.328 696.957 345.328C702.692 345.328 705.56 349.015 705.56 356.388V380.721C705.56 389.406 710.394 393.748 720.061 393.748H737.512C747.18 393.748 752.014 389.406 752.014 380.721V356.388C752.014 349.015 754.881 345.328 760.616 345.328C766.515 345.328 769.465 348.933 769.465 356.143L769.219 436.024C769.055 446.675 762.665 452 750.047 452H695.483C690.731 452 688.355 450.443 688.355 447.33C688.355 444.381 690.894 442.906 695.974 442.906H738.741Z" fill="#FF1755"/>
<path d="M144.908 418.327H146.137V418.229L146.121 418.133L144.908 418.327ZM144.908 375.56L146.12 375.762L146.137 375.662V375.56H144.908ZM134.339 390.307L133.577 389.343L133.571 389.348L134.339 390.307ZM134.093 403.088L133.257 403.989L133.259 403.99L134.093 403.088ZM122.295 411.691L123.209 410.869L123.131 410.782L123.038 410.712L122.295 411.691ZM115.168 406.283L115.91 405.304L115.9 405.297L115.89 405.29L115.168 406.283ZM109.514 403.088L109.987 401.954L109.987 401.954L109.514 403.088ZM125.982 416.361L124.96 417.042L125.004 417.109L125.057 417.17L125.982 416.361ZM122.295 382.442L123.079 383.389L123.123 383.352L123.164 383.311L122.295 382.442ZM125.982 377.526L124.945 376.866L124.923 376.901L124.903 376.938L125.982 377.526ZM109.514 391.536L109.126 390.37L109.11 390.376L109.094 390.381L109.514 391.536ZM115.168 388.341L115.946 389.292L115.951 389.288L115.168 388.341ZM144.908 418.327H143.679V435.286H144.908H146.137V418.327H144.908ZM144.908 435.286H143.679C143.679 440.596 142.07 444.379 139.029 446.871C135.94 449.401 131.171 450.771 124.507 450.771V452V453.229C131.444 453.229 136.875 451.813 140.587 448.772C144.345 445.693 146.137 441.119 146.137 435.286H144.908ZM124.507 452V450.771H83.9524V452V453.229H124.507V452ZM83.9524 452V450.771C77.4687 450.771 72.8355 449.347 69.8309 446.713C66.8572 444.107 65.2726 440.131 65.2726 434.549H64.0436H62.8147C62.8147 440.601 64.5481 445.351 68.2107 448.561C71.8424 451.745 77.1636 453.229 83.9524 453.229V452ZM64.0436 434.549H65.2726V364.499H64.0436H62.8147V434.549H64.0436ZM64.0436 364.499H65.2726C65.2726 358.743 66.8635 354.641 69.8436 351.955C72.8479 349.248 77.4759 347.786 83.9524 347.786V346.557V345.328C77.1565 345.328 71.83 346.856 68.1981 350.13C64.5418 353.425 62.8147 358.294 62.8147 364.499H64.0436ZM83.9524 346.557V347.786H124.507V346.557V345.328H83.9524V346.557ZM124.507 346.557V347.786C131.164 347.786 135.928 349.194 139.015 351.798C142.063 354.368 143.679 358.277 143.679 363.762H144.908H146.137C146.137 357.778 144.353 353.084 140.6 349.919C136.887 346.788 131.451 345.328 124.507 345.328V346.557ZM144.908 363.762H143.679V375.56H144.908H146.137V363.762H144.908ZM144.908 375.56L143.696 375.358C142.949 379.837 139.699 384.51 133.577 389.343L134.339 390.307L135.1 391.272C141.432 386.273 145.228 381.114 146.12 375.762L144.908 375.56ZM134.339 390.307L133.571 389.348C130.937 391.455 129.423 393.904 129.423 396.698H130.652H131.881C131.881 394.903 132.825 393.092 135.107 391.267L134.339 390.307ZM130.652 396.698H129.423C129.423 399.303 130.831 401.736 133.257 403.989L134.093 403.088L134.929 402.188C132.767 400.18 131.881 398.352 131.881 396.698H130.652ZM134.093 403.088L133.259 403.99C136.498 406.987 138.973 409.708 140.71 412.156C142.454 414.613 143.408 416.729 143.694 418.521L144.908 418.327L146.121 418.133C145.753 415.828 144.576 413.357 142.715 410.734C140.847 408.102 138.243 405.253 134.928 402.186L134.093 403.088ZM122.295 411.691L123.038 410.712L115.91 405.304L115.168 406.283L114.425 407.263L121.553 412.67L122.295 411.691ZM115.168 406.283L115.89 405.29C114.014 403.925 112.046 402.812 109.987 401.954L109.514 403.088L109.042 404.223C110.915 405.003 112.716 406.02 114.445 407.277L115.168 406.283ZM109.514 403.088L109.987 401.954C107.914 401.09 105.949 400.63 104.107 400.63V401.859V403.088C105.543 403.088 107.182 403.448 109.042 404.223L109.514 403.088ZM104.107 401.859V400.63H95.7503V401.859V403.088H104.107V401.859ZM95.7503 401.859V400.63C90.661 400.63 86.6415 402.172 83.929 405.437C81.2526 408.657 80.0198 413.353 80.0198 419.31H81.2488H82.4777C82.4777 413.633 83.6618 409.604 85.8193 407.007C87.9406 404.455 91.1719 403.088 95.7503 403.088V401.859ZM81.2488 419.31H80.0198V429.633H81.2488H82.4777V419.31H81.2488ZM81.2488 429.633H80.0198C80.0198 434.282 81.3172 437.984 84.1135 440.501C86.8852 442.996 90.921 444.135 95.996 444.135V442.906V441.677C91.2396 441.677 87.9018 440.604 85.7577 438.674C83.6382 436.767 82.4777 433.833 82.4777 429.633H81.2488ZM95.996 442.906V444.135H115.413V442.906V441.677H95.996V442.906ZM115.413 442.906V444.135C119.693 444.135 123.13 443.086 125.491 440.773C127.856 438.455 128.932 435.073 128.932 430.862H127.703H126.474C126.474 434.681 125.501 437.321 123.77 439.017C122.034 440.718 119.327 441.677 115.413 441.677V442.906ZM127.703 430.862H128.932V420.048H127.703H126.474V430.862H127.703ZM127.703 420.048H128.932C128.932 418.482 128.152 416.974 126.907 415.551L125.982 416.361L125.057 417.17C126.106 418.369 126.474 419.319 126.474 420.048H127.703ZM125.982 416.361L127.005 415.679C125.982 414.145 124.714 412.541 123.209 410.869L122.295 411.691L121.382 412.513C122.826 414.117 124.016 415.627 124.96 417.042L125.982 416.361ZM122.295 382.442L123.164 383.311C124.721 381.755 126.021 380.022 127.061 378.115L125.982 377.526L124.903 376.938C123.977 378.636 122.819 380.18 121.426 381.573L122.295 382.442ZM125.982 377.526L127.019 378.186C128.317 376.146 128.932 373.692 128.932 370.89H127.703H126.474C126.474 373.331 125.941 375.302 124.945 376.866L125.982 377.526ZM127.703 370.89H128.932V365.483H127.703H126.474V370.89H127.703ZM127.703 365.483H128.932C128.932 362.076 127.793 359.338 125.374 357.499C123.018 355.709 119.631 354.914 115.413 354.914V356.143V357.372C119.389 357.372 122.146 358.133 123.887 359.456C125.564 360.731 126.474 362.663 126.474 365.483H127.703ZM115.413 356.143V354.914H95.996V356.143V357.372H115.413V356.143ZM95.996 356.143V354.914C90.826 354.914 86.7454 356.475 83.9915 359.78C81.2734 363.042 80.0198 367.8 80.0198 373.839H81.2488H82.4777C82.4777 368.081 83.682 363.991 85.8797 361.354C88.0416 358.759 91.3346 357.372 95.996 357.372V356.143ZM81.2488 373.839H80.0198L80.0198 378.018H81.2488H82.4777L82.4777 373.839H81.2488ZM81.2488 378.018H80.0198C80.0198 383.031 81.2301 387.018 83.8674 389.748C86.5124 392.486 90.3883 393.748 95.2587 393.748V392.519V391.29C90.7891 391.29 87.6601 390.136 85.6351 388.04C83.6025 385.936 82.4777 382.673 82.4777 378.018H81.2488ZM95.2587 392.519V393.748H104.107V392.519V391.29H95.2587V392.519ZM104.107 392.519V393.748C106.062 393.748 108.006 393.392 109.934 392.691L109.514 391.536L109.094 390.381C107.418 390.991 105.757 391.29 104.107 391.29V392.519ZM109.514 391.536L109.903 392.702C112.028 391.994 114.042 390.85 115.946 389.292L115.168 388.341L114.389 387.39C112.688 388.781 110.934 389.768 109.126 390.37L109.514 391.536ZM115.168 388.341L115.951 389.288L123.079 383.389L122.295 382.442L121.512 381.495L114.384 387.394L115.168 388.341ZM202.357 442.906V444.135H242.666V442.906V441.677H202.357V442.906ZM242.666 442.906V444.135C245.206 444.135 246.909 444.519 247.938 445.13C248.866 445.681 249.302 446.442 249.302 447.576H250.531H251.76C251.76 445.597 250.886 444.022 249.193 443.017C247.6 442.071 245.369 441.677 242.666 441.677V442.906ZM250.531 447.576H249.302C249.302 448.615 248.899 449.315 248.009 449.831C247.018 450.407 245.373 450.771 242.912 450.771V452V453.229C245.53 453.229 247.695 452.856 249.244 451.957C250.894 450.998 251.76 449.486 251.76 447.576H250.531ZM242.912 452V450.771H189.576V452V453.229H242.912V452ZM189.576 452V450.771C183.075 450.771 178.427 449.442 175.421 446.992C172.462 444.581 170.896 440.922 170.896 435.778H169.667H168.438C168.438 441.449 170.19 445.901 173.868 448.897C177.498 451.855 182.804 453.229 189.576 453.229V452ZM169.667 435.778H170.896V363.271H169.667H168.438V435.778H169.667ZM169.667 363.271H170.896C170.896 357.951 172.47 354.165 175.435 351.677C178.44 349.153 183.082 347.786 189.576 347.786V346.557V345.328C182.798 345.328 177.485 346.746 173.854 349.794C170.182 352.877 168.438 357.448 168.438 363.271H169.667ZM189.576 346.557V347.786H242.912V346.557V345.328H189.576V346.557ZM242.912 346.557V347.786C245.366 347.786 247 348.169 247.984 348.772C248.87 349.315 249.302 350.074 249.302 351.227H250.531H251.76C251.76 349.266 250.923 347.69 249.269 346.677C247.713 345.723 245.537 345.328 242.912 345.328V346.557ZM250.531 351.227H249.302C249.302 352.472 248.84 353.293 247.914 353.872C246.891 354.511 245.2 354.914 242.666 354.914V356.143V357.372C245.376 357.372 247.617 356.955 249.216 355.956C250.912 354.896 251.76 353.259 251.76 351.227H250.531ZM242.666 356.143V354.914H202.357V356.143V357.372H242.666V356.143ZM202.357 356.143V354.914C197.057 354.914 192.854 356.003 189.961 358.39C187.023 360.815 185.643 364.405 185.643 368.924H186.872H188.101C188.101 364.922 189.302 362.121 191.526 360.286C193.795 358.413 197.334 357.372 202.357 357.372V356.143ZM186.872 368.924H185.643V379.493H186.872H188.101V368.924H186.872ZM186.872 379.493H185.643C185.643 384.073 186.969 387.718 189.815 390.19C192.627 392.634 196.717 393.748 201.865 393.748V392.519V391.29C197.018 391.29 193.612 390.234 191.427 388.335C189.274 386.465 188.101 383.597 188.101 379.493H186.872ZM201.865 392.519V393.748H242.42V392.519V391.29H201.865V392.519ZM242.42 392.519V393.748C245.058 393.748 246.85 394.095 247.941 394.656C248.468 394.928 248.795 395.231 248.993 395.537C249.187 395.837 249.302 396.209 249.302 396.698H250.531H251.76C251.76 395.794 251.538 394.946 251.056 394.202C250.578 393.464 249.891 392.896 249.066 392.471C247.453 391.64 245.19 391.29 242.42 391.29V392.519ZM250.531 396.698H249.302C249.302 398.052 248.817 398.933 247.891 399.541C246.874 400.209 245.193 400.63 242.666 400.63V401.859V403.088C245.383 403.088 247.634 402.65 249.239 401.596C250.934 400.484 251.76 398.785 251.76 396.698H250.531ZM242.666 401.859V400.63H201.865V401.859V403.088H242.666V401.859ZM201.865 401.859V400.63C196.717 400.63 192.627 401.745 189.815 404.188C186.969 406.66 185.643 410.306 185.643 414.886H186.872H188.101C188.101 410.782 189.274 407.914 191.427 406.044C193.612 404.145 197.018 403.088 201.865 403.088V401.859ZM186.872 414.886H185.643V430.616H186.872H188.101V414.886H186.872ZM186.872 430.616H185.643C185.643 434.988 187.034 438.459 189.979 440.796C192.87 443.09 197.066 444.135 202.357 444.135V442.906V441.677C197.325 441.677 193.778 440.673 191.507 438.871C189.291 437.112 188.101 434.438 188.101 430.616H186.872ZM326.816 385.637L327.559 386.616L327.626 386.566L327.685 386.506L326.816 385.637ZM331.977 367.203H333.206V367.147L333.201 367.092L331.977 367.203ZM328.536 359.092L327.667 359.961L327.686 359.98L327.706 359.998L328.536 359.092ZM319.688 391.045L318.945 390.065L318.891 390.107L318.842 390.154L319.688 391.045ZM330.503 420.785L329.449 421.417L329.464 421.442L329.48 421.467L330.503 420.785ZM326.57 415.869L327.439 415L327.398 414.959L327.354 414.922L326.57 415.869ZM319.442 409.97L320.226 409.023L320.206 409.007L320.186 408.992L319.442 409.97ZM349.183 379.493L350.394 379.701L350.412 379.598V379.493H349.183ZM338.614 394.486L339.381 395.445L339.394 395.436L339.405 395.426L338.614 394.486ZM338.368 406.775L339.214 405.884L339.204 405.874L338.368 406.775ZM349.183 422.014H350.412V421.912L350.395 421.812L349.183 422.014ZM326.816 385.637L327.685 386.506C331.375 382.816 333.206 378.152 333.206 372.61H331.977H330.749C330.749 377.556 329.138 381.577 325.947 384.768L326.816 385.637ZM331.977 372.61H333.206V367.203H331.977H330.749V372.61H331.977ZM331.977 367.203L333.201 367.092C332.856 363.292 331.629 360.26 329.367 358.186L328.536 359.092L327.706 359.998C329.377 361.53 330.444 363.904 330.754 367.314L331.977 367.203ZM328.536 359.092L329.405 358.223C327.136 355.954 323.91 354.914 319.934 354.914V356.143V357.372C323.496 357.372 326.004 358.298 327.667 359.961L328.536 359.092ZM319.934 356.143V354.914H299.779V356.143V357.372H319.934V356.143ZM299.779 356.143V354.914C294.788 354.914 290.835 356.363 288.158 359.455C285.511 362.513 284.295 366.972 284.295 372.61H285.524H286.752C286.752 367.271 287.912 363.495 290.017 361.064C292.092 358.667 295.267 357.372 299.779 357.372V356.143ZM285.524 372.61H284.295V379.247H285.524H286.752V372.61H285.524ZM285.524 379.247H284.295C284.295 384.881 285.489 389.336 288.09 392.394C290.724 395.49 294.617 396.943 299.533 396.943V395.715V394.486C295.11 394.486 291.998 393.195 289.962 390.801C287.893 388.37 286.752 384.591 286.752 379.247H285.524ZM299.533 395.715V396.943H306.661V395.715V394.486H299.533V395.715ZM306.661 395.715V396.943C312.318 396.943 316.985 395.307 320.535 391.936L319.688 391.045L318.842 390.154C315.836 393.009 311.819 394.486 306.661 394.486V395.715ZM319.688 391.045L320.431 392.024L327.559 386.616L326.816 385.637L326.073 384.658L318.945 390.065L319.688 391.045ZM340.334 452.983V451.754C337.825 451.754 336.135 450.975 335.031 449.579C333.883 448.127 333.206 445.808 333.206 442.414H331.977H330.749C330.749 446.066 331.465 449.032 333.103 451.103C334.784 453.23 337.272 454.212 340.334 454.212V452.983ZM331.977 442.414H333.206V424.963H331.977H330.749V442.414H331.977ZM331.977 424.963H333.206C333.206 423.338 332.597 421.711 331.525 420.103L330.503 420.785L329.48 421.467C330.375 422.809 330.749 423.967 330.749 424.963H331.977ZM330.503 420.785L331.557 420.153C330.512 418.412 329.134 416.695 327.439 415L326.57 415.869L325.701 416.738C327.283 418.32 328.527 419.881 329.449 421.417L330.503 420.785ZM326.57 415.869L327.354 414.922L320.226 409.023L319.442 409.97L318.659 410.917L325.787 416.816L326.57 415.869ZM319.442 409.97L320.186 408.992C315.99 405.803 312.042 404.071 308.382 404.071V405.3V406.529C311.276 406.529 314.702 407.911 318.699 410.949L319.442 409.97ZM308.382 405.3V404.071H299.533V405.3V406.529H308.382V405.3ZM299.533 405.3V404.071C294.674 404.071 290.804 405.287 288.157 407.934C285.51 410.58 284.295 414.451 284.295 419.31H285.524H286.752C286.752 414.83 287.872 411.695 289.895 409.672C291.918 407.649 295.053 406.529 299.533 406.529V405.3ZM285.524 419.31H284.295V441.677H285.524H286.752V419.31H285.524ZM285.524 441.677H284.295C284.295 445.325 283.595 447.836 282.395 449.412C281.243 450.926 279.495 451.754 276.921 451.754V452.983V454.212C280.082 454.212 282.635 453.156 284.351 450.901C286.019 448.709 286.752 445.567 286.752 441.677H285.524ZM276.921 452.983V451.754C274.376 451.754 272.632 450.886 271.469 449.258C270.251 447.553 269.547 444.845 269.547 440.94H268.318H267.089C267.089 445.063 267.819 448.377 269.469 450.687C271.173 453.073 273.73 454.212 276.921 454.212V452.983ZM268.318 440.94H269.547V364.499H268.318H267.089V440.94H268.318ZM268.318 364.499H269.547C269.547 358.725 271.067 354.616 273.895 351.934C276.736 349.241 281.109 347.786 287.244 347.786V346.557V345.328C280.762 345.328 275.672 346.863 272.204 350.151C268.724 353.45 267.089 358.312 267.089 364.499H268.318ZM287.244 346.557V347.786H328.045V346.557V345.328H287.244V346.557ZM328.045 346.557V347.786C334.962 347.786 339.923 349.159 343.136 351.699C346.294 354.196 347.954 357.976 347.954 363.271H349.183H350.412C350.412 357.423 348.548 352.845 344.66 349.771C340.828 346.741 335.22 345.328 328.045 345.328V346.557ZM349.183 363.271H347.954V379.493H349.183H350.412V363.271H349.183ZM349.183 379.493L347.972 379.284C347.226 383.611 343.967 388.371 337.822 393.546L338.614 394.486L339.405 395.426C345.714 390.113 349.501 384.878 350.394 379.701L349.183 379.493ZM338.614 394.486L337.846 393.526C335.24 395.611 333.698 397.975 333.698 400.63H334.927H336.156C336.156 399.025 337.072 397.293 339.381 395.445L338.614 394.486ZM334.927 400.63H333.698C333.698 403.095 335.132 405.447 337.532 407.676L338.368 406.775L339.204 405.874C337.016 403.843 336.156 402.098 336.156 400.63H334.927ZM338.368 406.775L337.522 407.666C340.764 410.747 343.244 413.513 344.985 415.966C346.734 418.431 347.686 420.507 347.97 422.216L349.183 422.014L350.395 421.812C350.024 419.588 348.845 417.158 346.99 414.543C345.126 411.917 342.526 409.03 339.214 405.884L338.368 406.775ZM349.183 422.014H347.954V441.923H349.183H350.412V422.014H349.183ZM349.183 441.923H347.954C347.954 445.478 347.237 447.917 346.011 449.45C344.826 450.931 343.012 451.754 340.334 451.754V452.983V454.212C343.555 454.212 346.165 453.192 347.93 450.986C349.653 448.832 350.412 445.741 350.412 441.923H349.183ZM421.625 356.143V354.914H404.911V356.143V357.372H421.625V356.143ZM404.911 356.143V354.914C399.79 354.914 395.728 356.261 392.961 359.166C390.205 362.06 388.935 366.291 388.935 371.627H390.164H391.393C391.393 366.641 392.581 363.129 394.741 360.861C396.889 358.605 400.201 357.372 404.911 357.372V356.143ZM390.164 371.627H388.935V380.967H390.164H391.393V371.627H390.164ZM390.164 380.967H388.935C388.935 386.067 390.189 390.119 392.913 392.889C395.641 395.663 399.637 396.943 404.665 396.943V395.715V394.486C400.026 394.486 396.772 393.308 394.666 391.166C392.556 389.021 391.393 385.699 391.393 380.967H390.164ZM404.665 395.715V396.943H422.116V395.715V394.486H404.665V395.715ZM422.116 395.715V396.943C427.223 396.943 431.247 395.328 433.953 391.934C436.618 388.592 437.847 383.72 437.847 377.526H436.618H435.389C435.389 383.458 434.201 387.68 432.032 390.401C429.904 393.069 426.678 394.486 422.116 394.486V395.715ZM436.618 377.526H437.847V368.432H436.618H435.389V377.526H436.618ZM436.618 368.432H437.847C437.847 364.075 436.506 360.607 433.649 358.265C430.838 355.961 426.759 354.914 421.625 354.914V356.143V357.372C426.486 357.372 429.903 358.373 432.091 360.165C434.231 361.92 435.389 364.597 435.389 368.432H436.618ZM436.618 438.727H437.847V417.098H436.618H435.389V438.727H436.618ZM436.618 417.098H437.847C437.847 412.814 436.5 409.405 433.639 407.107C430.83 404.85 426.755 403.826 421.625 403.826V405.054V406.283C426.49 406.283 429.912 407.266 432.1 409.023C434.237 410.74 435.389 413.353 435.389 417.098H436.618ZM421.625 405.054V403.826H404.911V405.054V406.283H421.625V405.054ZM404.911 405.054V403.826C399.86 403.826 395.843 404.852 393.073 407.114C390.256 409.414 388.935 412.821 388.935 417.098H390.164H391.393C391.393 413.346 392.529 410.731 394.628 409.017C396.775 407.264 400.131 406.283 404.911 406.283V405.054ZM390.164 417.098H388.935V438.973H390.164H391.393V417.098H390.164ZM390.164 438.973H388.935C388.935 443.134 388.228 446.039 386.994 447.873C385.818 449.62 384.076 450.525 381.561 450.525V451.754V452.983C384.782 452.983 387.341 451.759 389.033 449.245C390.666 446.818 391.393 443.333 391.393 438.973H390.164ZM381.561 451.754V450.525C378.997 450.525 377.25 449.684 376.095 448.132C374.889 446.513 374.188 443.936 374.188 440.202H372.959H371.73C371.73 444.17 372.462 447.369 374.124 449.6C375.836 451.899 378.391 452.983 381.561 452.983V451.754ZM372.959 440.202H374.188V364.254H372.959H371.73V440.202H372.959ZM372.959 364.254H374.188C374.188 358.549 375.632 354.494 378.307 351.856C380.986 349.215 385.106 347.786 390.901 347.786V346.557V345.328C384.735 345.328 379.884 346.849 376.581 350.106C373.276 353.367 371.73 358.161 371.73 364.254H372.959ZM390.901 346.557V347.786H433.423V346.557V345.328H390.901V346.557ZM433.423 346.557V347.786C440.073 347.786 444.831 349.232 447.918 351.909C450.971 354.558 452.594 358.593 452.594 364.254H453.823H455.052C455.052 358.116 453.275 353.303 449.528 350.053C445.815 346.831 440.373 345.328 433.423 345.328V346.557ZM453.823 364.254H452.594V439.956H453.823H455.052V364.254H453.823ZM453.823 439.956H452.594C452.594 443.776 451.891 446.419 450.679 448.081C449.52 449.67 447.775 450.525 445.22 450.525V451.754V452.983C448.401 452.983 450.957 451.872 452.665 449.529C454.321 447.258 455.052 444.002 455.052 439.956H453.823ZM445.22 451.754V450.525C442.716 450.525 440.974 449.607 439.794 447.82C438.555 445.944 437.847 442.973 437.847 438.727H436.618H435.389C435.389 443.166 436.115 446.709 437.743 449.175C439.43 451.73 441.99 452.983 445.22 452.983V451.754ZM558.955 418.327H560.184V418.229L560.168 418.133L558.955 418.327ZM558.955 375.56L560.167 375.762L560.184 375.662V375.56H558.955ZM548.386 390.307L547.625 389.343L547.618 389.348L548.386 390.307ZM548.14 403.088L547.304 403.989L547.306 403.99L548.14 403.088ZM536.342 411.691L537.256 410.869L537.178 410.782L537.085 410.712L536.342 411.691ZM529.215 406.283L529.957 405.304L529.948 405.297L529.937 405.29L529.215 406.283ZM523.562 403.088L524.034 401.954L524.034 401.954L523.562 403.088ZM540.029 416.361L539.007 417.042L539.051 417.109L539.104 417.17L540.029 416.361ZM536.342 382.442L537.126 383.389L537.171 383.352L537.211 383.311L536.342 382.442ZM540.029 377.526L538.993 376.866L538.97 376.901L538.95 376.938L540.029 377.526ZM523.562 391.536L523.173 390.37L523.157 390.376L523.142 390.381L523.562 391.536ZM529.215 388.341L529.993 389.292L529.998 389.288L529.215 388.341ZM558.955 418.327H557.726V435.286H558.955H560.184V418.327H558.955ZM558.955 435.286H557.726C557.726 440.596 556.118 444.379 553.076 446.871C549.988 449.401 545.218 450.771 538.555 450.771V452V453.229C545.491 453.229 550.922 451.813 554.634 448.772C558.392 445.693 560.184 441.119 560.184 435.286H558.955ZM538.555 452V450.771H498V452V453.229H538.555V452ZM498 452V450.771C491.516 450.771 486.883 449.347 483.878 446.713C480.904 444.107 479.32 440.131 479.32 434.549H478.091H476.862C476.862 440.601 478.595 445.351 482.258 448.561C485.89 451.745 491.211 453.229 498 453.229V452ZM478.091 434.549H479.32V364.499H478.091H476.862V434.549H478.091ZM478.091 364.499H479.32C479.32 358.743 480.911 354.641 483.891 351.955C486.895 349.248 491.523 347.786 498 347.786V346.557V345.328C491.204 345.328 485.877 346.856 482.245 350.13C478.589 353.425 476.862 358.294 476.862 364.499H478.091ZM498 346.557V347.786H538.555V346.557V345.328H498V346.557ZM538.555 346.557V347.786C545.212 347.786 549.975 349.194 553.063 351.798C556.11 354.368 557.726 358.277 557.726 363.762H558.955H560.184C560.184 357.778 558.4 353.084 554.647 349.919C550.934 346.788 545.498 345.328 538.555 345.328V346.557ZM558.955 363.762H557.726V375.56H558.955H560.184V363.762H558.955ZM558.955 375.56L557.743 375.358C556.996 379.837 553.746 384.51 547.625 389.343L548.386 390.307L549.148 391.272C555.479 386.273 559.275 381.114 560.167 375.762L558.955 375.56ZM548.386 390.307L547.618 389.348C544.984 391.455 543.47 393.904 543.47 396.698H544.699H545.928C545.928 394.903 546.872 393.092 549.154 391.267L548.386 390.307ZM544.699 396.698H543.47C543.47 399.303 544.878 401.736 547.304 403.989L548.14 403.088L548.977 402.188C546.814 400.18 545.928 398.352 545.928 396.698H544.699ZM548.14 403.088L547.306 403.99C550.545 406.987 553.02 409.708 554.758 412.156C556.501 414.613 557.455 416.729 557.741 418.521L558.955 418.327L560.168 418.133C559.8 415.828 558.624 413.357 556.762 410.734C554.894 408.102 552.29 405.253 548.975 402.186L548.14 403.088ZM536.342 411.691L537.085 410.712L529.957 405.304L529.215 406.283L528.472 407.263L535.6 412.67L536.342 411.691ZM529.215 406.283L529.937 405.29C528.061 403.925 526.093 402.812 524.034 401.954L523.562 403.088L523.089 404.223C524.963 405.003 526.763 406.02 528.492 407.277L529.215 406.283ZM523.562 403.088L524.034 401.954C521.961 401.09 519.996 400.63 518.154 400.63V401.859V403.088C519.59 403.088 521.229 403.448 523.089 404.223L523.562 403.088ZM518.154 401.859V400.63H509.797V401.859V403.088H518.154V401.859ZM509.797 401.859V400.63C504.708 400.63 500.689 402.172 497.976 405.437C495.3 408.657 494.067 413.353 494.067 419.31H495.296H496.525C496.525 413.633 497.709 409.604 499.866 407.007C501.988 404.455 505.219 403.088 509.797 403.088V401.859ZM495.296 419.31H494.067V429.633H495.296H496.525V419.31H495.296ZM495.296 429.633H494.067C494.067 434.282 495.364 437.984 498.161 440.501C500.932 442.996 504.968 444.135 510.043 444.135V442.906V441.677C505.287 441.677 501.949 440.604 499.805 438.674C497.685 436.767 496.525 433.833 496.525 429.633H495.296ZM510.043 442.906V444.135H529.46V442.906V441.677H510.043V442.906ZM529.46 442.906V444.135C533.74 444.135 537.177 443.086 539.538 440.773C541.903 438.455 542.979 435.073 542.979 430.862H541.75H540.521C540.521 434.681 539.548 437.321 537.817 439.017C536.082 440.718 533.374 441.677 529.46 441.677V442.906ZM541.75 430.862H542.979V420.048H541.75H540.521V430.862H541.75ZM541.75 420.048H542.979C542.979 418.482 542.199 416.974 540.954 415.551L540.029 416.361L539.104 417.17C540.153 418.369 540.521 419.319 540.521 420.048H541.75ZM540.029 416.361L541.052 415.679C540.029 414.145 538.761 412.541 537.256 410.869L536.342 411.691L535.429 412.513C536.873 414.117 538.063 415.627 539.007 417.042L540.029 416.361ZM536.342 382.442L537.211 383.311C538.768 381.755 540.068 380.022 541.108 378.115L540.029 377.526L538.95 376.938C538.024 378.636 536.867 380.18 535.473 381.573L536.342 382.442ZM540.029 377.526L541.066 378.186C542.364 376.146 542.979 373.692 542.979 370.89H541.75H540.521C540.521 373.331 539.988 375.302 538.993 376.866L540.029 377.526ZM541.75 370.89H542.979V365.483H541.75H540.521V370.89H541.75ZM541.75 365.483H542.979C542.979 362.076 541.84 359.338 539.421 357.499C537.065 355.709 533.678 354.914 529.46 354.914V356.143V357.372C533.436 357.372 536.193 358.133 537.934 359.456C539.611 360.731 540.521 362.663 540.521 365.483H541.75ZM529.46 356.143V354.914H510.043V356.143V357.372H529.46V356.143ZM510.043 356.143V354.914C504.873 354.914 500.792 356.475 498.039 359.78C495.321 363.042 494.067 367.8 494.067 373.839H495.296H496.525C496.525 368.081 497.729 363.991 499.927 361.354C502.089 358.759 505.382 357.372 510.043 357.372V356.143ZM495.296 373.839H494.067V378.018H495.296H496.525V373.839H495.296ZM495.296 378.018H494.067C494.067 383.031 495.277 387.018 497.915 389.748C500.56 392.486 504.435 393.748 509.306 393.748V392.519V391.29C504.836 391.29 501.707 390.136 499.682 388.04C497.65 385.936 496.525 382.673 496.525 378.018H495.296ZM509.306 392.519V393.748H518.154V392.519V391.29H509.306V392.519ZM518.154 392.519V393.748C520.109 393.748 522.053 393.392 523.981 392.691L523.562 391.536L523.142 390.381C521.465 390.991 519.804 391.29 518.154 391.29V392.519ZM523.562 391.536L523.95 392.702C526.075 391.994 528.089 390.85 529.993 389.292L529.215 388.341L528.436 387.39C526.735 388.781 524.981 389.768 523.173 390.37L523.562 391.536ZM529.215 388.341L529.998 389.288L537.126 383.389L536.342 382.442L535.559 381.495L528.431 387.394L529.215 388.341ZM615.175 442.906V444.135H632.38V442.906V441.677H615.175V442.906ZM632.38 442.906V444.135C637.48 444.135 641.532 442.881 644.302 440.157C647.077 437.429 648.357 433.433 648.357 428.404H647.128H645.899C645.899 433.043 644.721 436.298 642.579 438.404C640.434 440.514 637.112 441.677 632.38 441.677V442.906ZM647.128 428.404H648.357V370.153H647.128H645.899V428.404H647.128ZM647.128 370.153H648.357C648.357 365.271 647.047 361.39 644.218 358.747C641.406 356.119 637.302 354.914 632.135 354.914V356.143V357.372C636.963 357.372 640.355 358.501 642.54 360.543C644.71 362.57 645.899 365.694 645.899 370.153H647.128ZM632.135 356.143V354.914H615.421V356.143V357.372H632.135V356.143ZM615.421 356.143V354.914C610.331 354.914 606.285 356.121 603.514 358.754C600.731 361.398 599.445 365.277 599.445 370.153H600.674H601.903C601.903 365.689 603.074 362.562 605.207 360.536C607.351 358.499 610.679 357.372 615.421 357.372V356.143ZM600.674 370.153H599.445V428.896H600.674H601.903V370.153H600.674ZM600.674 428.896H599.445C599.445 433.766 600.707 437.642 603.445 440.287C606.175 442.925 610.162 444.135 615.175 444.135V442.906V441.677C610.52 441.677 607.257 440.552 605.153 438.52C603.057 436.495 601.903 433.365 601.903 428.896H600.674ZM664.333 435.286H663.104C663.104 440.606 661.53 444.392 658.565 446.88C655.56 449.404 650.918 450.771 644.424 450.771V452V453.229C651.202 453.229 656.515 451.811 660.146 448.763C663.818 445.68 665.562 441.109 665.562 435.286H664.333ZM644.424 452V450.771H603.377V452V453.229H644.424V452ZM603.377 452V450.771C596.883 450.771 592.241 449.404 589.236 446.88C586.271 444.392 584.697 440.606 584.697 435.286H583.469H582.24C582.24 441.109 583.984 445.68 587.656 448.763C591.286 451.811 596.599 453.229 603.377 453.229V452ZM583.469 435.286H584.697V363.762H583.469H582.24V435.286H583.469ZM583.469 363.762H584.697C584.697 358.267 586.279 354.355 589.249 351.788C592.254 349.191 596.89 347.786 603.377 347.786V346.557V345.328C596.592 345.328 591.274 346.79 587.642 349.928C583.976 353.096 582.24 357.787 582.24 363.762H583.469ZM603.377 346.557V347.786H644.178V346.557V345.328H603.377V346.557ZM644.178 346.557V347.786C650.75 347.786 655.45 349.193 658.496 351.793C661.505 354.361 663.104 358.272 663.104 363.762H664.333H665.562C665.562 357.782 663.801 353.09 660.092 349.924C656.42 346.789 651.042 345.328 644.178 345.328V346.557ZM664.333 363.762H663.104V435.286H664.333H665.562V363.762H664.333ZM769.465 356.143L770.694 356.146V356.143H769.465ZM769.219 436.024L770.448 436.043L770.448 436.035L770.448 436.028L769.219 436.024ZM738.741 442.906V444.135C743.343 444.135 747.023 443.027 749.548 440.596C752.082 438.156 753.243 434.587 753.243 430.125H752.014H750.785C750.785 434.184 749.734 437.005 747.843 438.825C745.944 440.654 742.987 441.677 738.741 441.677V442.906ZM752.014 430.125H753.243V416.115H752.014H750.785V430.125H752.014ZM752.014 416.115H753.243C753.243 411.635 752.01 408.057 749.34 405.621C746.691 403.205 742.837 402.105 738.004 402.105V403.334V404.563C742.511 404.563 745.662 405.593 747.683 407.437C749.683 409.261 750.785 412.075 750.785 416.115H752.014ZM738.004 403.334V402.105H707.526V403.334V404.563H738.004V403.334ZM707.526 403.334V402.105C701.269 402.105 696.804 400.836 693.92 398.507C691.086 396.218 689.584 392.744 689.584 387.849H688.355H687.126C687.126 393.278 688.819 397.546 692.375 400.419C695.882 403.251 701.002 404.563 707.526 404.563V403.334ZM688.355 387.849H689.584V355.897H688.355H687.126V387.849H688.355ZM688.355 355.897H689.584C689.584 352.509 690.278 350.196 691.458 348.746C692.599 347.344 694.354 346.557 696.957 346.557V345.328V344.099C693.826 344.099 691.279 345.073 689.552 347.194C687.865 349.267 687.126 352.239 687.126 355.897H688.355ZM696.957 345.328V346.557C699.541 346.557 701.291 347.372 702.439 348.848C703.633 350.382 704.331 352.827 704.331 356.388H705.56H706.789C706.789 352.576 706.053 349.491 704.379 347.339C702.66 345.128 700.108 344.099 696.957 344.099V345.328ZM705.56 356.388H704.331V380.721H705.56H706.789V356.388H705.56ZM705.56 380.721H704.331C704.331 385.289 705.608 388.93 708.364 391.406C711.095 393.859 715.069 394.977 720.061 394.977V393.748V392.519C715.386 392.519 712.11 391.467 710.006 389.577C707.928 387.711 706.789 384.838 706.789 380.721H705.56ZM720.061 393.748V394.977H737.512V393.748V392.519H720.061V393.748ZM737.512 393.748V394.977C742.505 394.977 746.479 393.859 749.21 391.406C751.965 388.93 753.243 385.289 753.243 380.721H752.014H750.785C750.785 384.838 749.645 387.711 747.567 389.577C745.464 391.467 742.187 392.519 737.512 392.519V393.748ZM752.014 380.721H753.243V356.388H752.014H750.785V380.721H752.014ZM752.014 356.388H753.243C753.243 352.827 753.941 350.382 755.134 348.848C756.282 347.372 758.032 346.557 760.616 346.557V345.328V344.099C757.465 344.099 754.914 345.128 753.194 347.339C751.52 349.491 750.785 352.576 750.785 356.388H752.014ZM760.616 345.328V346.557C763.304 346.557 765.12 347.366 766.301 348.81C767.521 350.301 768.236 352.674 768.236 356.143H769.465H770.694C770.694 352.402 769.933 349.367 768.204 347.253C766.436 345.092 763.828 344.099 760.616 344.099V345.328ZM769.465 356.143L768.236 356.139L767.99 436.02L769.219 436.024L770.448 436.028L770.694 356.146L769.465 356.143ZM769.219 436.024L767.99 436.005C767.912 441.08 766.363 444.689 763.516 447.062C760.631 449.466 756.211 450.771 750.047 450.771V452V453.229C756.501 453.229 761.585 451.871 765.09 448.95C768.634 445.997 770.362 441.618 770.448 436.043L769.219 436.024ZM750.047 452V450.771H695.483V452V453.229H750.047V452ZM695.483 452V450.771C693.202 450.771 691.704 450.39 690.81 449.805C690.006 449.278 689.584 448.519 689.584 447.33H688.355H687.126C687.126 449.254 687.891 450.83 689.463 451.86C690.945 452.831 693.012 453.229 695.483 453.229V452ZM688.355 447.33H689.584C689.584 446.291 689.987 445.591 690.877 445.075C691.868 444.499 693.513 444.135 695.974 444.135V442.906V441.677C693.356 441.677 691.191 442.05 689.642 442.949C687.992 443.908 687.126 445.42 687.126 447.33H688.355ZM695.974 442.906V444.135H738.741V442.906V441.677H695.974V442.906Z" fill="#FF1755" mask="url(#path-4-outside-2_446_2)"/>
</svg>
